<svg width="1753" height="900" viewBox="0 0 1753 801" fill="none" xmlns="http://www.w3.org/2000/svg">
<path d="M0 50C0 22.3858 22.3858 0 50 0H1703C1730.61 0 1753 22.3858 1753 50V476.637C1753 611.071 1623.02 707.222 1494.47 667.882L1367.01 628.875C1317.01 613.571 1262.99 618.464 1216.55 642.506L953.916 778.456C897.387 807.717 830.306 808.323 773.258 780.088L493.808 641.778C446.232 618.231 391.247 614.563 340.966 631.584L264.125 657.594C134.451 701.489 0 605.055 0 468.153V50Z" fill="url(#paint0_linear_36_208)"/>
<defs>
<linearGradient id="paint0_linear_36_208" x1="0" y1="0" x2="635.723" y2="1350.81" gradientUnits="userSpaceOnUse">
<stop stop-color="#72EDF2"/>
<stop offset="1" stop-color="#5151E5"/>
</linearGradient>
</defs>
</svg>
