<svg width="1920" height="3784" viewBox="0 0 1920 3784" fill="none" xmlns="http://www.w3.org/2000/svg">
<circle cx="1565" cy="1674" r="12" fill="#DFEFFF"/>
<circle cx="1601" cy="1674" r="12" fill="#DFEFFF"/>
<circle cx="1583" cy="1698" r="12" fill="#DFEFFF"/>
<path d="M-173 1561L118.163 1640.71C154.68 1650.71 180 1683.89 180 1721.76V1721.76C180 1762.15 151.25 1796.83 111.552 1804.32L-173 1858V1561Z" fill="#DFEFFF"/>
<path d="M-151 0L140.163 79.7135C176.68 89.7108 202 122.895 202 160.755V160.755C202 201.154 173.25 235.834 133.552 243.323L-151 297V0Z" fill="#DFEFFF"/>
<path d="M1952.57 1068L1660.99 989.827C1624.42 980.024 1598.92 946.974 1598.72 909.115V909.115C1598.51 868.716 1627.07 833.884 1666.73 826.185L1951 771L1952.57 1068Z" fill="#DFEFFF"/>
<circle cx="227" cy="884" r="12" fill="#DFEFFF"/>
<circle cx="263" cy="884" r="12" fill="#DFEFFF"/>
<circle cx="245" cy="908" r="12" fill="#DFEFFF"/>
<path d="M2115.57 3481L1823.99 3402.83C1787.42 3393.02 1761.92 3359.97 1761.72 3322.11V3322.11C1761.51 3281.72 1790.07 3246.88 1829.73 3239.19L2114 3184L2115.57 3481Z" fill="#DFEFFF"/>
<circle cx="479" cy="3321" r="12" fill="#DFEFFF"/>
<circle cx="515" cy="3321" r="12" fill="#DFEFFF"/>
<circle cx="497" cy="3345" r="12" fill="#DFEFFF"/>
<circle cx="1523" cy="3748" r="12" fill="#DFEFFF"/>
<circle cx="1559" cy="3748" r="12" fill="#DFEFFF"/>
<circle cx="1541" cy="3772" r="12" fill="#DFEFFF"/>
<path d="M-175 3244L250.92 3356.17C290.451 3366.58 318 3402.32 318 3443.2V3478.4C318 3521.91 286.877 3559.19 244.069 3566.96L-175 3643V3244Z" fill="#DFEFFF"/>
</svg>
