<svg width="432" height="419" viewBox="0 0 432 419" fill="none" xmlns="http://www.w3.org/2000/svg">
<g filter="url(#filter0_d_36_226)">
<path d="M215.911 394.978C324.003 394.978 411.629 350.118 411.629 294.782C411.629 239.445 324.003 194.586 215.911 194.586C107.819 194.586 20.1934 239.445 20.1934 294.782C20.1934 350.118 107.819 394.978 215.911 394.978Z" fill="#DFEFFF"/>
<path d="M327.488 359.463C356.939 359.463 380.813 344.716 380.813 326.524C380.813 308.332 356.939 293.585 327.488 293.585C298.038 293.585 274.164 308.332 274.164 326.524C274.164 344.716 298.038 359.463 327.488 359.463Z" fill="#E0E0E0"/>
<path d="M200.905 267.418L166.736 247.697C166.168 247.407 165.54 247.255 164.903 247.255C164.266 247.255 163.637 247.407 163.07 247.697L49.82 313.092C49.5981 313.167 49.4051 313.309 49.2683 313.498C49.1316 313.688 49.058 313.916 49.058 314.15C49.058 314.384 49.1316 314.612 49.2683 314.802C49.4051 314.992 49.5981 315.134 49.82 315.208L83.9812 334.937C84.5503 335.222 85.1777 335.37 85.8139 335.37C86.4501 335.37 87.0775 335.222 87.6466 334.937L97.7408 329.107L190.803 275.52L200.913 269.575C201.142 269.501 201.341 269.357 201.482 269.162C201.623 268.968 201.698 268.734 201.698 268.494C201.697 268.254 201.619 268.02 201.477 267.827C201.334 267.633 201.134 267.49 200.905 267.418Z" fill="#E0E0E0"/>
<path d="M354.507 314.273L349.227 311.469C349.227 311.469 349.743 285.688 355.09 265.721C360.567 245.278 376.508 222.696 391.571 231.158C406.635 239.62 379.862 257.013 371.809 273.798C363.757 290.583 354.507 314.273 354.507 314.273Z" fill="#5065DB"/>
<path opacity="0.15" d="M354.507 314.273L349.227 311.469C349.227 311.469 349.743 285.688 355.09 265.721C360.567 245.278 376.508 222.696 391.571 231.158C406.635 239.62 379.862 257.013 371.809 273.798C363.757 290.583 354.507 314.273 354.507 314.273Z" fill="black"/>
<path d="M353.81 308.156C353.74 308.154 353.672 308.138 353.608 308.109C353.544 308.08 353.486 308.039 353.438 307.988C353.39 307.937 353.353 307.877 353.328 307.812C353.303 307.746 353.292 307.677 353.294 307.607C354.425 267.599 371.916 243.171 386.553 234.413C386.675 234.341 386.821 234.319 386.958 234.354C387.096 234.388 387.214 234.476 387.287 234.598C387.36 234.72 387.381 234.865 387.347 235.003C387.312 235.141 387.224 235.259 387.102 235.332C372.695 243.95 355.483 268.058 354.36 307.631C354.359 307.702 354.344 307.772 354.315 307.837C354.287 307.901 354.246 307.96 354.195 308.009C354.144 308.058 354.084 308.096 354.018 308.121C353.951 308.146 353.881 308.158 353.81 308.156Z" fill="white"/>
<path d="M356.894 315.503L352.179 313.084C352.179 313.084 352.761 300.423 362.461 283.925C371.071 269.272 388.521 257.792 395.852 261.883C401.543 265.049 402.855 271.986 397.402 276.602C391.949 281.219 366.775 290.903 356.894 315.503Z" fill="#5065DB"/>
<path d="M354.999 311.461C355.819 311.625 356.106 309.599 356.27 309.083C356.582 308.115 356.91 307.164 357.271 306.213C357.977 304.363 358.779 302.551 359.673 300.784C361.396 297.386 363.412 294.146 365.7 291.1C367.839 288.249 370.17 285.547 372.679 283.015C374.942 280.738 377.323 278.581 379.813 276.553C381.895 274.848 384.06 273.232 386.282 271.715C387.922 270.6 389.562 269.534 391.276 268.534C392.17 268.009 393.064 267.492 393.99 267.017L394.253 266.885C394.4 266.814 394.512 266.687 394.565 266.532C394.618 266.377 394.607 266.208 394.536 266.061C394.464 265.915 394.337 265.802 394.182 265.749C394.028 265.696 393.858 265.707 393.712 265.778C393.138 266.057 392.588 266.369 392.072 266.68C390.628 267.5 389.218 268.32 387.832 269.239C385.777 270.567 383.77 271.972 381.813 273.454C379.386 275.29 377.055 277.239 374.819 279.3C372.27 281.634 369.871 284.127 367.636 286.762C365.212 289.604 363.019 292.634 361.076 295.823C359.009 299.199 357.278 302.769 355.91 306.483C355.653 307.199 355.407 307.913 355.172 308.623C354.827 309.333 354.618 310.1 354.557 310.887C354.567 311.012 354.611 311.131 354.685 311.232C354.759 311.334 354.859 311.413 354.975 311.461H354.999Z" fill="white"/>
<path d="M87.4088 291.789C87.4088 291.789 87.54 275.709 81.2178 262.4C74.8956 249.091 65.0064 240.088 54.9778 238.03C44.9492 235.971 35.6996 244.253 45.7036 251.97C55.7076 259.686 74.0838 268.616 79.955 293.609L87.4088 291.789Z" fill="#5065DB"/>
<path opacity="0.15" d="M87.4088 291.789C87.4088 291.789 87.54 275.709 81.2178 262.4C74.8956 249.091 65.0064 240.088 54.9778 238.03C44.9492 235.971 35.6996 244.253 45.7036 251.97C55.7076 259.686 74.0838 268.616 79.955 293.609L87.4088 291.789Z" fill="black"/>
<path d="M83.2268 289.009C83.1222 289.009 83.0215 288.969 82.9453 288.898C82.869 288.826 82.8231 288.728 82.8168 288.624C81.2752 262.884 60.07 246.148 49.5904 243.294C49.4863 243.265 49.3978 243.197 49.3441 243.103C49.2904 243.009 49.2757 242.898 49.3034 242.794C49.3323 242.688 49.4018 242.597 49.497 242.542C49.5922 242.487 49.7053 242.471 49.8118 242.499C60.4718 245.41 82.0706 262.425 83.6368 288.574C83.6394 288.682 83.6011 288.787 83.5296 288.867C83.4581 288.948 83.3587 288.999 83.2514 289.009H83.2268Z" fill="white"/>
<path d="M88.7044 313.863C90.7358 311.3 92.0989 308.272 92.6714 305.052C93.2439 301.832 93.0078 298.52 91.9844 295.413C91.3891 293.537 90.4369 291.794 89.18 290.28C88.1714 289.091 86.72 288.476 85.5392 287.484C82.9972 285.376 80.0452 283.138 79.1268 279.792C78.3888 277.127 78.5446 274.602 77.0686 272.101C76.1989 270.534 74.814 269.317 73.149 268.657C70.976 267.837 68.5816 268.378 66.2856 268.657C63.0056 269.026 60.5456 267.894 57.7084 266.385C54.5842 264.745 50.9352 263.45 47.5486 264.458C46.4472 264.784 45.4266 265.339 44.5531 266.085C43.6795 266.831 42.9724 267.752 42.4777 268.788C41.9829 269.825 41.7114 270.954 41.6809 272.103C41.6504 273.251 41.8616 274.393 42.3006 275.454C43.055 277.291 44.449 278.784 45.474 280.489C46.499 282.195 47.0402 284.146 46.294 286.008C45.72 287.385 44.654 288.468 44.2276 289.87C43.014 293.56 43.6946 296.84 47.36 298.742C51.1894 300.702 57.2 299.226 59.1188 304.04C59.8404 305.868 59.865 307.894 60.2586 309.821C61.0665 313.699 63.3213 317.123 66.5644 319.398C70.9678 322.457 76.9456 321.711 81.513 319.579C84.319 318.254 86.7804 316.298 88.7044 313.863Z" fill="#5065DB"/>
<path d="M54.1824 290.575C54.272 290.59 54.3641 290.576 54.4448 290.534C57.6745 289.286 61.1405 288.768 64.5941 289.017C68.0477 289.267 71.4033 290.278 74.42 291.977C74.5233 292.033 74.6444 292.045 74.7566 292.011C74.8688 291.977 74.963 291.9 75.0186 291.797C75.0474 291.746 75.0658 291.691 75.0727 291.633C75.0796 291.575 75.0749 291.517 75.0589 291.461C75.0428 291.405 75.0157 291.353 74.9792 291.308C74.9427 291.263 74.8976 291.226 74.8464 291.198C71.7122 289.438 68.227 288.394 64.6412 288.142C61.0555 287.89 57.4584 288.435 54.1086 289.739C54.0298 289.782 53.9661 289.848 53.9258 289.928C53.8855 290.009 53.8706 290.099 53.883 290.188C53.8955 290.277 53.9347 290.36 53.9955 290.427C54.0563 290.493 54.1358 290.539 54.2234 290.559L54.1824 290.575Z" fill="white"/>
<path d="M82.8168 314.003C82.7094 314.005 82.6055 313.965 82.5273 313.891C82.4491 313.818 82.4029 313.716 82.3986 313.609C81.636 295.077 63.0302 275.479 50.558 270.149C50.5076 270.128 50.4619 270.098 50.4234 270.059C50.3849 270.021 50.3545 269.975 50.3339 269.925C50.3133 269.874 50.3029 269.82 50.3034 269.766C50.3038 269.712 50.3151 269.658 50.3366 269.608C50.3815 269.507 50.4645 269.428 50.5674 269.388C50.6703 269.348 50.7848 269.35 50.886 269.395C63.555 274.823 82.4478 294.749 83.2268 313.593C83.229 313.647 83.2204 313.702 83.2013 313.754C83.1823 313.805 83.1533 313.853 83.116 313.893C83.0787 313.934 83.0338 313.966 82.9839 313.989C82.9339 314.012 82.8799 314.025 82.825 314.027L82.8168 314.003Z" fill="white"/>
<path d="M185.514 49.2L92.706 102.762C91.7869 103.362 91.0232 104.172 90.4772 105.124C89.9313 106.076 89.6188 107.144 89.5654 108.24V326.795C89.5654 328.795 90.9758 329.607 92.706 328.599L185.514 275.02C186.426 274.421 187.186 273.617 187.732 272.671C188.277 271.725 188.593 270.665 188.654 269.575V50.9876C188.654 48.9868 187.244 48.1668 185.514 49.2ZM184.136 253.38C184.136 255.094 182.931 256.184 181.446 257.037L96.4616 306.122C94.9856 306.942 93.772 306.286 93.772 304.564V122.811C93.7723 121.872 94.0203 120.949 94.4911 120.135C94.9618 119.322 95.6387 118.647 96.4534 118.178L181.438 69.085C181.711 68.9266 182.02 68.8428 182.336 68.8421C182.651 68.8413 182.961 68.9236 183.235 69.0807C183.508 69.2378 183.735 69.4641 183.894 69.737C184.052 70.0098 184.135 70.3194 184.136 70.6348V253.38Z" fill="#455A64"/>
<path d="M184.136 253.38C184.136 255.094 182.931 256.184 181.446 257.037L96.4616 306.122C94.9856 306.942 93.772 306.286 93.772 304.564V122.811C93.7723 121.872 94.0204 120.949 94.4911 120.135C94.9619 119.322 95.6387 118.647 96.4534 118.178L181.438 69.085C181.711 68.9266 182.021 68.8428 182.336 68.842C182.651 68.8413 182.961 68.9236 183.235 69.0807C183.508 69.2378 183.735 69.4641 183.894 69.7369C184.052 70.0098 184.135 70.3194 184.136 70.6348V253.38Z" fill="#263238"/>
<path d="M96.4616 306.122L181.446 257.054C182.043 256.731 182.594 256.331 183.086 255.865L93.772 205.566V304.564C93.772 306.286 94.9856 306.975 96.4616 306.122Z" fill="#37474F"/>
<path d="M177.256 250.19V71.504L96.4534 118.178C95.6387 118.647 94.9619 119.322 94.4911 120.135C94.0204 120.949 93.7723 121.872 93.772 122.811V300.497L174.567 253.847C176.051 252.995 177.256 251.904 177.256 250.19Z" fill="#97A2AD"/>
<path d="M92.3124 328.82C91.3752 329.215 90.3635 329.402 89.347 329.368C88.3305 329.334 87.3335 329.08 86.4248 328.623L82.8332 326.549C81.9167 325.955 81.1536 325.153 80.6063 324.208C80.0591 323.263 79.7432 322.202 79.6844 321.112V102.5C79.7051 101.69 79.8891 100.892 80.2256 100.155C80.3404 99.9006 80.4634 99.6546 80.6028 99.4004L90.4428 105.14C90.236 105.51 90.0551 105.894 89.9016 106.288C89.6627 106.909 89.5324 107.567 89.5162 108.232V326.795C89.5654 328.64 90.7626 329.476 92.3124 328.82Z" fill="#263238"/>
<path d="M141.881 284.786C143.89 284.786 144.104 287.041 144.104 288.009C143.984 289.947 143.415 291.832 142.443 293.514C141.472 295.195 140.123 296.629 138.503 297.701C137.853 298.114 137.107 298.351 136.338 298.39C134.329 298.39 134.116 296.135 134.116 295.167C134.237 293.229 134.805 291.344 135.775 289.661C136.745 287.978 138.091 286.543 139.708 285.467C140.364 285.06 141.111 284.826 141.881 284.786Z" fill="#3B72AA"/>
<path d="M139.044 79.4662C139.864 78.9742 140.578 79.3678 140.578 80.3518C140.548 80.8838 140.394 81.4013 140.127 81.8628C139.861 82.3242 139.49 82.7167 139.044 83.0086C138.224 83.4924 137.503 83.0988 137.503 82.123C137.531 81.5897 137.685 81.0707 137.953 80.6088C138.221 80.1468 138.595 79.7552 139.044 79.4662Z" fill="#263238"/>
<path d="M129.139 92.4139C129.893 91.9793 130.5 92.3319 130.5 93.2339C130.475 93.7058 130.338 94.1651 130.102 94.5741C129.865 94.9832 129.535 95.3304 129.139 95.5873C128.384 96.0219 127.777 95.6693 127.777 94.7673C127.804 94.2958 127.941 93.837 128.177 93.4282C128.414 93.0193 128.743 92.6719 129.139 92.4139Z" fill="#263238"/>
<path d="M133.69 89.7244L148.933 80.9258C149.753 80.442 150.442 80.7864 150.442 81.6884C150.402 82.1949 150.245 82.6852 149.983 83.1207C149.721 83.5561 149.362 83.9248 148.933 84.1976L133.69 92.9962C132.87 93.48 132.181 93.1356 132.181 92.2336C132.221 91.7271 132.378 91.2367 132.64 90.8013C132.902 90.3658 133.261 89.9972 133.69 89.7244Z" fill="#263238"/>
<path d="M188.621 50.4874C188.392 48.8474 187.088 48.2652 185.522 49.1754L92.6978 102.762C91.769 103.339 91.006 104.147 90.4838 105.108L80.6438 99.3676C81.1742 98.4148 81.9391 97.6132 82.866 97.0388L175.633 43.46C176.606 42.9665 177.682 42.7094 178.773 42.7094C179.864 42.7094 180.94 42.9665 181.914 43.46L185.522 45.5264C186.363 46.0842 187.074 46.8155 187.609 47.6712C188.144 48.5269 188.489 49.4871 188.621 50.4874Z" fill="#37474F"/>
<path d="M164.276 57.1212C163.794 57.3785 163.258 57.5178 162.712 57.5278C162.166 57.5378 161.626 57.4181 161.135 57.1786C160.971 57.1085 160.828 56.9953 160.723 56.851C160.617 56.7067 160.553 56.5366 160.536 56.3586C160.536 56.129 160.536 55.2762 160.536 55.0384C160.563 54.8338 160.641 54.6395 160.765 54.4742C160.889 54.309 161.053 54.1785 161.242 54.0954L171.188 48.3554C171.672 48.1 172.209 47.9617 172.756 47.9518C173.303 47.9418 173.844 48.0604 174.337 48.298C174.498 48.3714 174.638 48.4857 174.741 48.6295C174.845 48.7733 174.909 48.9418 174.927 49.118C174.927 49.3558 174.927 50.2414 174.927 50.471C174.902 50.6769 174.823 50.8726 174.7 51.0392C174.576 51.2058 174.412 51.3378 174.222 51.4222L164.276 57.1212Z" fill="#BA68C8"/>
<path opacity="0.25" d="M164.276 57.1212C163.794 57.3785 163.258 57.5178 162.712 57.5278C162.166 57.5378 161.626 57.4181 161.135 57.1786C160.971 57.1085 160.828 56.9953 160.723 56.851C160.617 56.7067 160.553 56.5366 160.536 56.3586C160.536 56.129 160.536 55.2762 160.536 55.0384C160.563 54.8338 160.641 54.6395 160.765 54.4742C160.889 54.309 161.053 54.1785 161.242 54.0954L171.188 48.3554C171.672 48.1 172.209 47.9617 172.756 47.9518C173.303 47.9418 173.844 48.0604 174.337 48.298C174.498 48.3714 174.638 48.4857 174.741 48.6295C174.845 48.7733 174.909 48.9418 174.927 49.118C174.927 49.3558 174.927 50.2414 174.927 50.471C174.902 50.6769 174.823 50.8726 174.7 51.0392C174.576 51.2058 174.412 51.3378 174.222 51.4222L164.276 57.1212Z" fill="black"/>
<path d="M164.276 55.8174L174.222 50.0774C175.124 49.5526 175.165 48.7408 174.329 48.257C173.836 48.0194 173.294 47.9008 172.748 47.9107C172.201 47.9207 171.664 48.059 171.18 48.3144L161.233 54.0544C160.34 54.571 160.29 55.3828 161.135 55.8666C161.626 56.1054 162.166 56.2254 162.711 56.2169C163.257 56.2083 163.793 56.0715 164.276 55.8174Z" fill="#3B72AA"/>
<path opacity="0.3" d="M164.276 55.8174L174.222 50.0774C175.124 49.5526 175.165 48.7408 174.329 48.257C173.836 48.0194 173.294 47.9008 172.748 47.9107C172.201 47.9207 171.664 48.059 171.18 48.3144L161.233 54.0544C160.34 54.571 160.29 55.3828 161.135 55.8666C161.626 56.1054 162.166 56.2254 162.711 56.2169C163.257 56.2083 163.793 56.0715 164.276 55.8174Z" fill="black"/>
<path d="M85.9 135.439C85.8805 134.894 85.7322 134.36 85.4671 133.883C85.2021 133.405 84.8277 132.997 84.3748 132.692C84.2264 132.583 84.0506 132.516 83.8668 132.5C83.683 132.485 83.4984 132.52 83.3334 132.602C83.1448 132.717 82.3904 133.135 82.1936 133.258C82.0289 133.383 81.8993 133.548 81.8174 133.738C81.7355 133.928 81.7041 134.135 81.7262 134.341V158.711C81.746 159.256 81.8936 159.788 82.1571 160.265C82.4207 160.743 82.7927 161.151 83.2432 161.458C83.3914 161.558 83.5628 161.618 83.7409 161.632C83.9189 161.646 84.0977 161.615 84.26 161.54C84.4732 161.433 85.2358 160.991 85.4408 160.868C85.6055 160.743 85.7351 160.578 85.817 160.388C85.8989 160.198 85.9303 159.991 85.9082 159.785L85.9 135.439Z" fill="#BA68C8"/>
<path opacity="0.3" d="M85.9 135.439C85.8805 134.894 85.7322 134.36 85.4671 133.883C85.2021 133.405 84.8277 132.997 84.3748 132.692C84.2264 132.583 84.0506 132.516 83.8668 132.5C83.683 132.485 83.4984 132.52 83.3334 132.602C83.1448 132.717 82.3904 133.135 82.1936 133.258C82.0289 133.383 81.8993 133.548 81.8174 133.738C81.7355 133.928 81.7041 134.135 81.7262 134.341V158.711C81.746 159.256 81.8936 159.788 82.1571 160.265C82.4207 160.743 82.7927 161.151 83.2432 161.458C83.3914 161.558 83.5628 161.618 83.7409 161.632C83.9189 161.646 84.0977 161.615 84.26 161.54C84.4732 161.433 85.2358 160.991 85.4408 160.868C85.6055 160.743 85.7351 160.578 85.817 160.388C85.8989 160.198 85.9303 159.991 85.9082 159.785L85.9 135.439Z" fill="black"/>
<path d="M84.7684 136.12V160.49C84.7684 161.524 84.0878 161.966 83.2432 161.483C82.7927 161.176 82.4207 160.767 82.1571 160.29C81.8936 159.813 81.746 159.28 81.7262 158.736V134.341C81.7262 133.299 82.4068 132.856 83.2432 133.34C83.6996 133.649 84.0759 134.063 84.3411 134.546C84.6063 135.029 84.7528 135.569 84.7684 136.12Z" fill="#BA68C8"/>
<path opacity="0.4" d="M84.7684 136.12V160.49C84.7684 161.524 84.0878 161.966 83.2432 161.483C82.7927 161.176 82.4207 160.767 82.1571 160.29C81.8936 159.813 81.746 159.28 81.7262 158.736V134.341C81.7262 133.299 82.4068 132.856 83.2432 133.34C83.6996 133.649 84.0759 134.063 84.3411 134.546C84.6063 135.029 84.7528 135.569 84.7684 136.12Z" fill="#3B72AA"/>
<path d="M85.9 168.1C85.8805 167.554 85.7322 167.021 85.4671 166.543C85.2021 166.066 84.8277 165.658 84.3748 165.353C84.2264 165.243 84.0506 165.177 83.8668 165.161C83.683 165.145 83.4984 165.18 83.3334 165.263C83.1448 165.378 82.3904 165.796 82.1936 165.919C82.0289 166.044 81.8993 166.209 81.8174 166.398C81.7355 166.588 81.7041 166.796 81.7262 167.001V178.481C81.7473 179.025 81.8955 179.555 82.159 180.031C82.4224 180.507 82.7938 180.914 83.2432 181.22C83.3865 181.326 83.5556 181.392 83.733 181.411C83.9103 181.429 84.0894 181.4 84.2518 181.327C84.465 181.22 85.2276 180.777 85.4326 180.654C85.5966 180.531 85.7259 180.367 85.8078 180.179C85.8897 179.99 85.9214 179.784 85.9 179.58V168.1Z" fill="#BA68C8"/>
<path opacity="0.3" d="M85.9 168.1C85.8805 167.554 85.7322 167.021 85.4671 166.543C85.2021 166.066 84.8277 165.658 84.3748 165.353C84.2264 165.243 84.0506 165.177 83.8668 165.161C83.683 165.145 83.4984 165.18 83.3334 165.263C83.1448 165.378 82.3904 165.796 82.1936 165.919C82.0289 166.044 81.8993 166.209 81.8174 166.398C81.7355 166.588 81.7041 166.796 81.7262 167.001V178.481C81.7473 179.025 81.8955 179.555 82.159 180.031C82.4224 180.507 82.7938 180.914 83.2432 181.22C83.3865 181.326 83.5556 181.392 83.733 181.411C83.9103 181.429 84.0894 181.4 84.2518 181.327C84.465 181.22 85.2276 180.777 85.4326 180.654C85.5966 180.531 85.7259 180.367 85.8078 180.179C85.8897 179.99 85.9214 179.784 85.9 179.58V168.1Z" fill="black"/>
<path d="M84.7684 168.715V180.195C84.7684 181.228 84.0878 181.679 83.2432 181.187C82.7927 180.88 82.4207 180.472 82.1571 179.995C81.8936 179.517 81.746 178.985 81.7262 178.44V166.96C81.7262 165.927 82.4068 165.476 83.2432 165.96C83.6954 166.268 84.069 166.677 84.3339 167.156C84.5988 167.634 84.7476 168.168 84.7684 168.715Z" fill="#3B72AA"/>
<path opacity="0.4" d="M84.7684 168.715V180.195C84.7684 181.228 84.0878 181.679 83.2432 181.187C82.7927 180.88 82.4207 180.472 82.1571 179.995C81.8936 179.517 81.746 178.985 81.7262 178.44V166.96C81.7262 165.927 82.4068 165.476 83.2432 165.96C83.6954 166.268 84.069 166.677 84.3339 167.156C84.5988 167.634 84.7476 168.168 84.7684 168.715Z" fill="black"/>
<path d="M113.075 147.756C113.156 148.154 113.266 148.546 113.403 148.928C113.936 150.372 114.895 151.733 114.813 153.274C114.723 155.013 113.354 156.358 112.304 157.743C110.94 159.576 110.031 161.706 109.652 163.958C109.272 166.211 109.434 168.521 110.123 170.699C111.131 173.352 112.529 175.84 114.272 178.079L118.233 183.696C119.43 185.269 120.959 186.56 122.71 187.477C126.113 189.4 129.91 190.522 133.813 190.757C140.227 191.19 146.607 189.517 151.984 185.992C157.683 182.22 155.174 172.544 161.004 169.01C168.056 164.746 171.418 149.937 162.775 143.754C162.775 143.754 164.169 134.685 161.611 132.373C159.061 130.239 155.906 128.96 152.591 128.715C148.015 128.24 143.431 129.134 138.864 129.117C134.162 129.102 129.464 129.395 124.801 129.995C123.161 130.216 120.848 130.815 119.963 132.414C119.713 133.041 119.645 133.726 119.766 134.39C119.753 135.443 119.377 136.46 118.7 137.268C117.683 138.498 116.24 139.326 115.158 140.482C114.264 141.446 113.611 142.607 113.249 143.871C112.887 145.134 112.827 146.465 113.075 147.756Z" fill="#263238"/>
<path d="M158.585 160.843C165.965 161.048 166.924 162.622 173.533 169.166C179.027 174.603 197.231 191.404 197.231 191.404L219.043 197.21L213.894 210.519C213.894 210.519 208.974 210.314 199.134 210.305C193.09 210.305 190.991 208.952 184.907 204.893C181.807 202.819 164.317 191.372 164.317 191.372L158.585 160.843Z" fill="#E6E6E6"/>
<path d="M243.176 170.298L203.201 184.385L192.18 231.945L193.074 232.896L231.081 218.719L244.062 171.249L243.176 170.298Z" fill="#DFEFFF"/>
<path opacity="0.35" d="M204.087 185.336L193.074 232.896L192.18 231.945L203.201 184.385L204.087 185.336Z" fill="black"/>
<path opacity="0.25" d="M244.062 171.249L204.087 185.336L193.074 232.896L231.081 218.719L244.062 171.249Z" fill="black"/>
<g opacity="0.2">
<path d="M225.136 209.043C225.505 209.977 228.572 212.036 233.008 211.667L233.754 208.928L225.136 209.043Z" fill="black"/>
</g>
<g opacity="0.1">
<path d="M232.024 180.99L232.352 179.391C232.532 178.514 230.187 178.973 227.112 180.425L219.896 182.606C216.821 184.057 213.918 185.14 213.73 186.017L213.402 187.608L232.024 180.99Z" fill="black"/>
</g>
<path d="M234.402 173.774C234.517 173.225 233.582 173.34 232.327 173.676L230.023 174.455C230.023 174.455 230.966 172.143 225.513 173.635C219.519 175.275 219.388 178.252 219.388 178.252C218.45 178.658 217.489 179.009 216.51 179.301C214.517 179.949 214.304 180.334 214.14 180.892L213.845 181.901L234.222 174.734C234.222 174.734 234.32 174.324 234.402 173.774Z" fill="#37474F"/>
<path d="M232.254 176.833C230.368 177.653 229.589 178.104 229.302 179.465C228.982 181.015 228.916 181.663 228.916 181.663L218.305 185.845C218.305 185.845 218.879 183.557 219.019 182.794C219.158 182.032 217.756 182.032 215.919 182.876L216.354 180.974L232.86 174.849L232.254 176.833Z" fill="#37474F"/>
<path d="M232.565 181.015C232.565 181.015 232.721 180.302 232.901 179.416C233.082 178.53 230.737 178.998 227.662 180.449L220.446 182.63C217.371 184.082 214.46 185.164 214.279 186.042L213.951 187.682L232.565 181.015Z" fill="#37474F"/>
<path d="M239.617 187.518C239.617 187.518 238.199 192.733 237.821 194.078C237.444 195.422 230.901 198.415 227.629 198.825C221.364 199.604 220.651 200.957 222.151 205.385C223.545 209.485 227.621 211.043 233.279 210.379C235.935 210.068 239.601 207.714 241.044 203.606C242.881 198.358 241.864 192.757 242.627 189.666C243.389 186.575 241.208 185.689 239.617 187.518Z" fill="#FFA8A7"/>
<path d="M177.674 259.235L173.435 261.695L171.656 262.72L148.335 276.176L145.153 277.98L139.782 281.08L141.422 264.343L144.555 231.937V231.601L144.702 230.149L148.802 187.78L150.598 169.24L151.229 162.59L151.443 160.441H151.557C153.457 159.913 155.464 159.913 157.363 160.441C157.786 160.57 158.198 160.734 158.593 160.933C161.053 162.155 162.693 164.533 164.054 167.034C164.389 167.643 164.69 168.27 164.956 168.912C165.967 171.342 166.747 173.863 167.285 176.439C168.359 181.195 169.745 186.058 170.294 193.725C170.381 195.698 170.277 197.676 169.983 199.629C169.613 204.798 169.55 209.984 169.794 215.16C170.483 226.886 173.435 232.199 177.674 259.235Z" fill="#E0E0E0"/>
<path d="M171.656 262.703L148.335 276.16L145.153 277.98L139.782 281.08L136.084 283.212L113.632 296.168C113.87 287.148 113.977 277.365 113.764 268.124C113.698 265.032 113.673 261.875 113.805 258.644C114.231 247.427 116.363 235.397 124.005 222.737L124.358 222.097C125.26 227.452 133.46 230.928 140.84 231.748L141.66 231.822C142.587 231.912 143.546 231.953 144.538 231.953H145.161C151.402 231.896 158.79 230.428 167.301 227.55C168.121 232.306 168.941 238.546 169.819 245.844C170.212 249.124 170.611 252.62 171.016 256.332C171.18 258.407 171.434 260.53 171.656 262.703Z" fill="#3B72AB"/>
<path d="M173.435 261.678L171.656 262.703L148.335 276.16L145.153 277.98L139.782 281.08L136.084 283.212L113.632 296.168L111.172 297.586C111.295 287.877 111.377 278.365 111.369 272.396C111.369 266.844 111.492 261.908 111.796 257.529C112.394 248.886 113.641 242.384 115.723 237.464C118.167 232.079 121.058 226.909 124.366 222.007C124.366 222.007 126.416 228.928 141.75 230.018H141.849C142.751 230.084 143.702 230.125 144.702 230.141H145.867C164.956 230.141 167.064 225.328 167.064 225.328C168.928 232.406 170.404 239.581 171.483 246.82C171.888 249.378 172.279 252.112 172.656 255.02C172.935 257.152 173.197 259.366 173.435 261.678Z" fill="#3B72AB"/>
<path opacity="0.4" d="M173.435 261.678L171.656 262.703L148.335 276.16L145.153 277.98L139.782 281.08L136.084 283.212L113.632 296.168L111.172 297.586C111.295 287.877 111.377 278.365 111.369 272.396C111.369 266.844 111.492 261.908 111.796 257.529C112.394 248.886 113.641 242.384 115.723 237.464C118.167 232.079 121.058 226.909 124.366 222.007C124.366 222.007 126.416 228.928 141.75 230.018H141.849C142.751 230.084 143.702 230.125 144.702 230.141H145.867C164.956 230.141 167.064 225.328 167.064 225.328C168.928 232.406 170.404 239.581 171.483 246.82C171.888 249.378 172.279 252.112 172.656 255.02C172.935 257.152 173.197 259.366 173.435 261.678Z" fill="black"/>
<path opacity="0.2" d="M162.488 250.797C162.488 250.797 160.356 257.57 151.385 261.367L150.959 263.441L148.335 276.16L145.153 277.98L147.056 263.95L147.876 257.849C153.42 257.274 158.588 254.779 162.488 250.797Z" fill="black"/>
<path d="M135.207 162.401L126.187 163.352C120.217 164.812 117.519 167.452 116.904 172.725C116.617 175.185 115.133 181.745 117.216 189.945C119.102 197.39 124.137 215.611 124.137 215.611C124.137 215.611 112.55 230.732 110.451 256.66C131.656 270.502 164.185 263.064 172.984 254.7C172.246 246.779 167.187 225.041 166.555 217.981C166.555 217.981 167.023 206.952 167.9 202.171C174.608 194.848 173.755 187.846 170.745 182.196C165.186 171.765 156.805 162.598 154.091 162.606L135.207 162.401Z" fill="#BA68C8"/>
<path opacity="0.7" d="M135.207 162.401L126.187 163.352C120.217 164.812 117.519 167.452 116.904 172.725C116.617 175.185 115.133 181.745 117.216 189.945C119.102 197.39 124.137 215.611 124.137 215.611C124.137 215.611 112.55 230.732 110.451 256.66C131.656 270.502 164.185 263.064 172.984 254.7C172.246 246.779 167.187 225.041 166.555 217.981C166.555 217.981 167.023 206.952 167.9 202.171C174.608 194.848 173.755 187.846 170.745 182.196C165.186 171.765 156.805 162.598 154.091 162.606L135.207 162.401Z" fill="white"/>
<path d="M143.021 218.858C143.021 219.022 143.021 219.17 143.021 219.293V219.506C143.026 219.574 143.026 219.643 143.021 219.711C142.71 222.991 142.341 226.476 141.947 230.026C141.947 230.026 141.947 230.026 141.947 230.076C141.89 230.65 141.824 231.224 141.758 231.806C140.553 242.507 139.118 253.946 138.011 264.36C137.74 266.885 137.494 269.345 137.273 271.74C136.929 275.323 136.56 279.251 136.182 283.22L113.731 296.176L111.271 297.594L104.998 301.211C106.261 288.788 109.204 260.006 110.844 247.017C111.033 245.549 111.279 244.081 111.558 242.622L111.779 241.556L111.878 241.121C111.984 240.629 112.091 240.153 112.206 239.67C112.32 239.186 112.427 238.776 112.534 238.341C112.788 237.349 113.058 236.373 113.354 235.422C113.493 234.963 113.624 234.504 113.772 234.053C113.919 233.602 114.042 233.151 114.19 232.708C114.485 231.822 114.772 230.953 115.076 230.108C115.072 230.092 115.072 230.075 115.076 230.059C115.215 229.657 115.363 229.239 115.51 228.862C115.707 228.304 115.912 227.763 116.117 227.222L116.363 226.574C116.486 226.279 116.593 225.992 116.707 225.705C117.109 224.696 117.527 223.737 117.896 222.843C117.978 222.646 118.069 222.45 118.151 222.261C118.233 222.072 118.364 221.794 118.462 221.564C118.708 220.99 118.954 220.457 119.192 219.924C119.29 219.694 119.397 219.473 119.495 219.26C119.594 219.047 119.733 218.768 119.84 218.538L119.996 218.21L120.16 217.89C120.17 217.848 120.19 217.809 120.217 217.776C120.239 217.716 120.267 217.658 120.299 217.603C120.319 217.567 120.335 217.528 120.348 217.489C120.416 217.373 120.477 217.252 120.529 217.128L121.078 216.062C121.078 216.004 121.135 215.963 121.152 215.914L121.365 215.521L114.543 187.231L111.148 173.176V172.946C111.304 171.7 112.345 165.82 118.347 164.033C121.736 163.158 125.207 162.641 128.704 162.491C130.049 162.409 131.262 162.376 132.255 162.352H133.821H134.764C134.766 162.371 134.766 162.39 134.764 162.409C134.813 162.532 134.952 162.901 135.166 163.475C135.189 163.571 135.222 163.665 135.264 163.754C135.265 163.768 135.265 163.781 135.264 163.795C136.74 167.846 140.881 179.637 142.939 189.879C143.3 191.65 143.595 193.381 143.808 195.021C144.423 200.146 143.972 208.723 143.021 218.858Z" fill="#FAFAFA"/>
<path d="M121.586 201.974C121.586 201.974 122.406 197.932 123.612 189.199C125.014 179.129 124.514 174.152 122.997 170.97L114.444 187.28L121.267 215.57C121.267 215.57 114.256 228.411 111.427 242.63C118.134 223.68 125.473 218.03 125.473 218.03L121.586 201.974Z" fill="#E6E6E6"/>
<path d="M151.549 156.087C154.206 156.087 154.518 156.53 156.805 159.597C158.167 161.425 166.785 175.652 166.785 175.652C166.785 175.652 159.93 166.632 154.755 163.893C153.759 163.31 152.681 162.878 151.557 162.614L151.549 156.087Z" fill="#EBEBEB"/>
<path d="M131.902 186.32C131.902 185.5 131.82 183.729 131.681 181.499C131 170.56 130.672 160.72 134.362 159.9L134.682 161.409C131.992 161.991 132.878 176.07 133.214 181.368C133.362 183.647 133.476 185.468 133.435 186.353L131.902 186.32Z" fill="#3B72AA"/>
<path d="M119.602 114.702L125.342 119.4C125.654 119.043 125.89 118.626 126.035 118.174C126.18 117.723 126.232 117.247 126.187 116.774C126.141 116.302 126 115.844 125.772 115.429C125.543 115.013 125.232 114.648 124.858 114.357C124.104 113.733 123.139 113.421 122.162 113.485C121.184 113.549 120.269 113.984 119.602 114.702Z" fill="#263238"/>
<path d="M134.592 156.784C134.592 153.184 126.203 147.764 121.873 140.195C117.544 132.627 119.709 120.179 125.645 118.269C125.695 118.269 125.859 116.67 125.883 116.555C126.211 115.111 126.765 113.727 127.523 112.455C129.942 108.289 135.067 105.075 139.823 104.402C158.626 101.664 167.269 108.97 170.721 117.006C171.84 119.709 172.339 122.629 172.18 125.55C172.084 127.696 171.288 129.751 169.914 131.402C168.54 133.053 166.663 134.209 164.571 134.693L134.592 156.784Z" fill="#263238"/>
<path d="M160.676 114.316C164.358 115.956 167.859 121.557 167.802 137.317C167.752 150.683 163.652 154.062 161.586 155.054C159.52 156.046 155.477 155.538 151.549 154.939V162.614C151.549 162.614 154.493 165.509 153.46 167.329C152.427 169.15 148.614 170.691 142.685 168.83C135.969 166.722 134.436 162.27 134.436 162.27L134.28 145.427C134.28 145.427 132.025 147.797 128.048 144.32C124.768 141.442 123.587 136.514 126.055 133.808C128.524 131.102 131.689 130.888 134.542 133.914L136.592 132.832C140.25 132.405 145.612 131.79 149.565 129.798C159.7 124.64 160.75 119.048 160.676 114.316Z" fill="#FFA8A7"/>
<path d="M134.6 131.733L134.649 139.113C135.123 139.126 135.594 139.041 136.035 138.865C136.475 138.688 136.874 138.424 137.208 138.087C137.542 137.751 137.804 137.35 137.977 136.909C138.151 136.467 138.232 135.995 138.216 135.521C138.207 134.549 137.828 133.616 137.157 132.912C136.485 132.209 135.571 131.787 134.6 131.733Z" fill="#263238"/>
<path d="M161.02 132.783C161.024 133.129 161.129 133.467 161.323 133.755C161.516 134.043 161.79 134.267 162.111 134.4C162.431 134.533 162.783 134.57 163.123 134.505C163.464 134.44 163.778 134.276 164.027 134.034C164.275 133.792 164.447 133.483 164.521 133.144C164.596 132.806 164.569 132.452 164.444 132.129C164.32 131.805 164.103 131.525 163.821 131.324C163.539 131.122 163.204 131.008 162.857 130.995C162.618 130.99 162.381 131.032 162.159 131.119C161.937 131.206 161.735 131.337 161.564 131.503C161.393 131.67 161.256 131.869 161.163 132.088C161.07 132.308 161.021 132.544 161.02 132.783Z" fill="black"/>
<path d="M146.875 133.57C146.861 133.824 146.897 134.079 146.981 134.319C147.065 134.559 147.196 134.781 147.366 134.97C147.536 135.16 147.741 135.314 147.971 135.424C148.2 135.534 148.45 135.598 148.704 135.612C148.962 135.614 149.218 135.565 149.457 135.468C149.696 135.371 149.914 135.228 150.097 135.046C150.281 134.865 150.427 134.649 150.527 134.411C150.627 134.173 150.679 133.918 150.68 133.66C150.688 133.41 150.647 133.161 150.559 132.927C150.471 132.693 150.337 132.479 150.166 132.297C149.995 132.114 149.79 131.967 149.562 131.864C149.335 131.761 149.089 131.704 148.839 131.696C148.589 131.688 148.34 131.729 148.106 131.817C147.873 131.905 147.658 132.039 147.476 132.21C147.294 132.381 147.147 132.586 147.044 132.814C146.94 133.041 146.883 133.287 146.875 133.537V133.57Z" fill="black"/>
<path d="M165.711 129.478L161.143 127.666C161.249 127.358 161.417 127.076 161.636 126.837C161.856 126.597 162.123 126.406 162.42 126.274C162.717 126.143 163.038 126.074 163.363 126.072C163.688 126.07 164.01 126.135 164.308 126.264C164.91 126.517 165.392 126.992 165.653 127.59C165.914 128.189 165.934 128.865 165.711 129.478Z" fill="black"/>
<path d="M156.691 131.339L156.461 142.278L162.34 140.974L156.691 131.339Z" fill="#F28F8F"/>
<path d="M149.762 144.509L155.502 146.288C155.418 146.679 155.255 147.049 155.023 147.375C154.79 147.7 154.493 147.975 154.15 148.181C153.807 148.387 153.426 148.52 153.029 148.573C152.632 148.625 152.229 148.596 151.844 148.486C151.057 148.212 150.403 147.648 150.016 146.909C149.629 146.17 149.538 145.312 149.762 144.509Z" fill="#B16668"/>
<path d="M152.935 148.584C152.929 147.786 152.607 147.022 152.04 146.46C151.473 145.898 150.707 145.583 149.909 145.583C149.83 145.579 149.751 145.579 149.671 145.583C149.701 146.223 149.922 146.84 150.307 147.354C150.691 147.867 151.221 148.253 151.828 148.461C152.184 148.579 152.561 148.62 152.935 148.584Z" fill="#F28F8F"/>
<path d="M151.549 154.98C147.408 154.488 138.872 152.11 137.486 148.641C138.041 150.382 139.107 151.917 140.545 153.045C143.12 155.259 151.549 157.563 151.549 157.563V154.98Z" fill="#F28F8F"/>
<path d="M134.395 156.128C133.312 155.907 132.353 156.382 131.467 157.875C130.582 159.367 128.638 162.549 128.638 162.549C128.638 162.549 127.63 173.036 128.638 175.669C129.508 177.932 139.093 186.419 139.093 186.419C139.093 186.419 136.592 195.841 136.502 198.932C136.412 202.023 142.242 213.758 142.947 219.76C142.947 219.76 145.022 200.9 144.128 194.102C142.587 182.319 137.06 167.1 134.452 162.262L134.395 156.128Z" fill="#EBEBEB"/>
<path d="M140.258 195.16C139.618 193.638 138.864 192.166 138.003 190.757C136.642 188.502 134.961 186.337 133.444 185.779C133.214 185.688 132.969 185.638 132.722 185.632H132.64C132.39 185.646 132.145 185.707 131.918 185.812C130.721 186.345 129.458 187.977 128.433 189.855C127.384 191.74 126.519 193.723 125.85 195.775C125.457 197.046 125.629 199.744 126.096 202.827C127.015 208.813 129.057 216.291 130.196 217.767C131.032 218.799 132.019 219.697 133.124 220.432C132.447 220.88 131.717 221.241 130.951 221.507C130.517 221.665 130.059 221.745 129.598 221.744V222.819H129.729C130.216 222.811 130.7 222.731 131.164 222.581C132.239 222.232 133.254 221.72 134.173 221.064C135.144 221.642 136.198 222.068 137.298 222.327C137.815 222.451 138.351 222.484 138.88 222.425L138.749 221.359C138.29 221.398 137.827 221.362 137.38 221.252C136.591 221.047 135.831 220.744 135.116 220.35C136.157 219.522 137.069 218.544 137.822 217.448C138.462 216.472 139.249 213.11 139.84 209.248C140.2 206.943 140.496 204.467 140.66 202.212C140.84 199.063 140.758 196.365 140.258 195.16ZM136.871 216.857C136.102 217.967 135.158 218.945 134.075 219.752C132.925 219.042 131.9 218.147 131.041 217.103C129.975 215.717 128.007 208.419 127.121 202.663C126.67 199.752 126.506 197.235 126.867 196.103C127.536 194.026 128.421 192.025 129.508 190.133C130.639 188.182 131.845 186.747 132.681 186.714C133.673 186.714 135.28 188.51 136.781 190.814C137.084 191.265 137.371 191.757 137.65 192.249C138.262 193.309 138.81 194.404 139.29 195.529C139.741 196.644 139.79 199.162 139.585 202.089C139.471 203.729 139.29 205.443 139.061 207.148C138.437 211.601 137.56 215.775 136.871 216.833V216.857Z" fill="#455A64"/>
<path d="M140.348 221.794C140.361 222.107 140.28 222.416 140.117 222.684C139.954 222.951 139.715 223.164 139.43 223.295C139.146 223.426 138.829 223.47 138.519 223.421C138.21 223.372 137.922 223.233 137.692 223.02C137.462 222.807 137.3 222.531 137.228 222.226C137.155 221.922 137.174 221.602 137.283 221.308C137.391 221.015 137.585 220.76 137.839 220.576C138.092 220.392 138.395 220.288 138.708 220.277C139.126 220.261 139.534 220.412 139.841 220.696C140.149 220.981 140.331 221.375 140.348 221.794Z" fill="#263238"/>
<path d="M131.156 222.22C131.17 222.533 131.091 222.844 130.929 223.112C130.767 223.38 130.528 223.594 130.244 223.727C129.96 223.859 129.643 223.905 129.333 223.857C129.023 223.809 128.734 223.67 128.503 223.457C128.273 223.245 128.11 222.969 128.036 222.664C127.963 222.359 127.981 222.039 128.09 221.745C128.198 221.451 128.392 221.196 128.646 221.011C128.9 220.827 129.202 220.723 129.516 220.711C129.723 220.702 129.929 220.734 130.123 220.806C130.318 220.877 130.496 220.985 130.649 221.125C130.801 221.266 130.924 221.434 131.011 221.622C131.098 221.81 131.147 222.013 131.156 222.22Z" fill="#263238"/>
<path d="M140.528 202.196L139.618 202.13C139.525 202.122 139.439 202.078 139.378 202.007C139.317 201.937 139.286 201.846 139.29 201.753C139.479 198.743 139.38 196.529 139.011 195.644C137.421 191.757 134.091 186.886 132.689 186.944C131.287 187.001 128.384 192.142 127.121 196.144C126.834 197.062 126.925 199.276 127.359 202.261C127.373 202.352 127.351 202.446 127.298 202.521C127.244 202.596 127.163 202.647 127.072 202.663L126.17 202.802C126.076 202.814 125.98 202.788 125.905 202.729C125.83 202.671 125.781 202.585 125.768 202.491C125.268 199.145 125.211 196.849 125.588 195.66C126.26 193.512 129.434 185.468 132.624 185.336C135.813 185.205 139.659 192.946 140.512 195.037C140.979 196.185 141.119 198.481 140.906 201.851C140.899 201.946 140.857 202.035 140.786 202.099C140.716 202.163 140.624 202.198 140.528 202.196Z" fill="#3B72AA"/>
<path d="M120.865 163.926C114.862 163.828 112.091 165.853 108.286 170.945C105.268 174.988 93.526 196.833 89.631 203.212L68.4258 191.88C64.1372 188.92 62.7514 184.246 60.0372 181.515C57.323 178.785 54.5104 178.235 51.5256 175.98C48.5408 173.725 47.3272 171.97 46.4662 174.078C45.6052 176.185 48.9262 179.596 49.5576 180.441C50.189 181.286 53.5182 183.163 49.1968 183.229C44.8754 183.295 36.3228 178.817 34.24 178.022C32.1572 177.227 32.2802 179.711 33.3052 181.302C34.3302 182.893 34.281 187.386 36.0112 189.986C37.8398 192.741 38.8402 193.938 42.9156 195.726C46.704 197.366 54.658 198.022 58.6842 200.539C62.7104 203.057 72.6898 211.929 78.7578 217.251C86.474 224.016 91.7958 225.254 96.0926 221.195C100.266 216.824 104.498 211.699 106.564 209.1C112.132 202.089 120.939 186.14 120.939 186.14C120.939 186.14 124.752 177.94 120.865 163.926Z" fill="#FFA8A7"/>
<path d="M121.693 163.328C112.853 163.328 110.213 166.526 105.687 173.914C101.16 181.302 89.549 202.45 89.549 202.45L72.8292 193.692C72.8292 193.692 69.8198 200.318 66.6218 207.148C66.6218 207.148 76.0846 215.348 80.5618 219.227C85.039 223.106 90.9758 226.148 96.478 221.4C102.357 216.332 121.422 190.002 121.422 190.002C125.949 181.786 124.94 169.33 121.693 163.328Z" fill="#F0F0F0"/>
<path d="M89.549 202.45C92.2796 205.664 95.5842 209.28 95.4366 212.126C95.4366 212.126 97.3062 209.6 90.738 200.293L89.549 202.45Z" fill="#E0E0E0"/>
<path d="M57.9216 123.59L51.0828 127.51L51.1074 119.654L45.9906 116.702L34.0596 123.59V137.366L22.1286 144.254V158.03L27.2454 160.982L34.0596 157.046V164.927L39.1764 167.879L51.1074 160.982V147.206L63.0384 140.318V126.542L57.9216 123.59Z" fill="#3B72AA"/>
<path d="M26.9999 146.552V160.328L38.9309 153.44V167.224L50.8619 160.328V146.552L62.7929 139.664V125.888L50.8209 132.801L50.8619 119L38.9309 125.888V139.664L26.9999 146.552Z" fill="#3B72AA"/>
<path d="M254.164 95.94C253.947 95.7523 253.714 95.5849 253.467 95.4398C252.598 94.9232 248.662 92.66 248.457 92.537C246.374 91.2086 243.078 91.5038 240.142 92.988C235.935 95.1118 232.434 99.5972 229.761 107.067C229.761 107.067 227.055 105.124 226.177 104.607C224.004 103.418 221.462 103.992 218.601 105.854C215.378 107.953 213.18 110.675 211.171 114.792V114.866C209.431 118.361 208.479 122.196 208.383 126.1C208.383 134.734 211.918 138.851 216.518 141.942C217.83 142.828 221.298 144.689 221.643 144.919C224.419 146.752 227.489 148.094 230.72 148.887L235.255 149.945L239.789 143.656C243.091 139.018 246.122 134.194 248.867 129.207C253.467 120.802 257.067 112.57 257.001 103.968C256.936 100.286 255.878 97.58 254.164 95.94Z" fill="#3B72AA"/>
<path opacity="0.3" d="M254.164 95.94C253.947 95.7523 253.714 95.5849 253.467 95.4398C252.598 94.9232 248.662 92.66 248.457 92.537C246.374 91.2086 243.078 91.5038 240.142 92.988C235.935 95.1118 232.434 99.5972 229.761 107.067C229.761 107.067 227.055 105.124 226.177 104.607C224.004 103.418 221.462 103.992 218.601 105.854C215.378 107.953 213.18 110.675 211.171 114.792V114.866C209.431 118.361 208.479 122.196 208.383 126.1C208.383 134.734 211.918 138.851 216.518 141.942C217.83 142.828 221.298 144.689 221.643 144.919C224.419 146.752 227.489 148.094 230.72 148.887L235.255 149.945L239.789 143.656C243.091 139.018 246.122 134.194 248.867 129.207C253.467 120.802 257.067 112.57 257.001 103.968C256.936 100.286 255.878 97.58 254.164 95.94Z" fill="#3B72AA"/>
<path d="M254.164 95.94C253.947 95.7523 253.714 95.5849 253.467 95.4398C252.598 94.9232 248.662 92.66 248.457 92.537C246.374 91.2086 243.078 91.5038 240.142 92.988C235.935 95.1118 232.434 99.5972 229.761 107.067C229.761 107.067 227.055 105.124 226.177 104.607C224.004 103.418 221.462 103.992 218.601 105.854C215.378 107.953 213.18 110.675 211.171 114.792V114.866C211.081 115.046 211.007 115.226 210.925 115.407L245.365 135.267C246.587 133.283 247.776 131.274 248.908 129.207C253.508 120.802 257.108 112.57 257.042 103.968C256.936 100.286 255.878 97.58 254.164 95.94Z" fill="#3B72AB"/>
<path opacity="0.15" d="M254.164 95.94C253.947 95.7523 253.714 95.5849 253.467 95.4398C252.598 94.9232 248.662 92.66 248.457 92.537C246.374 91.2086 243.078 91.5038 240.142 92.988C235.935 95.1118 232.434 99.5972 229.761 107.067C229.761 107.067 227.055 105.124 226.177 104.607C224.004 103.418 221.462 103.992 218.601 105.854C215.378 107.953 213.18 110.675 211.171 114.792V114.866C211.081 115.046 211.007 115.226 210.925 115.407L245.365 135.267C246.587 133.283 247.776 131.274 248.908 129.207C253.508 120.802 257.108 112.57 257.042 103.968C256.936 100.286 255.878 97.58 254.164 95.94Z" fill="black"/>
<path d="M229.736 107.035L234.345 113.045L241.774 104.255L233.377 99.4086C231.882 101.806 230.66 104.364 229.736 107.035Z" fill="#DDDBDB"/>
<path opacity="0.3" d="M229.736 107.035L234.345 113.045L241.774 104.255L233.377 99.4086C231.882 101.806 230.66 104.364 229.736 107.035Z" fill="black"/>
<path d="M254.164 95.94C252.155 94.1442 248.498 94.3 245.267 95.94C240.864 98.1704 237.223 102.984 234.5 111.135C231.778 106.133 228.137 105.977 223.734 108.839C220.503 110.938 218.305 113.66 216.305 117.777L216.264 117.85C214.529 121.35 213.58 125.187 213.484 129.093C213.484 137.727 217.026 141.844 221.618 144.935C224.394 146.768 227.465 148.11 230.696 148.904L235.23 149.962L239.765 143.672C243.066 139.035 246.097 134.211 248.842 129.224C253.442 120.819 257.042 112.586 256.977 103.984C256.936 100.286 255.878 97.58 254.164 95.94Z" fill="#457AB0"/>
<g opacity="0.07">
<path d="M250.294 95.12C251.558 95.0622 252.801 95.4609 253.795 96.2434C253.812 96.2788 253.838 96.3097 253.869 96.3336C255.558 97.8752 256.501 100.614 256.509 104.025C256.509 113.004 252.409 121.721 248.432 129.052C245.707 134.022 242.696 138.83 239.412 143.451L235.058 149.511L230.819 148.518C227.636 147.737 224.61 146.417 221.872 144.615C217.772 141.827 213.902 138.055 213.935 129.134C214.022 125.297 214.942 121.525 216.633 118.08V118.006C218.65 113.865 220.823 111.249 223.906 109.249C225.338 108.186 227.047 107.56 228.826 107.445C230.909 107.445 232.623 108.732 234.066 111.381C234.102 111.452 234.157 111.511 234.225 111.551C234.293 111.592 234.372 111.613 234.451 111.61H234.492C234.577 111.602 234.657 111.57 234.724 111.518C234.791 111.466 234.841 111.395 234.869 111.315C237.469 103.533 240.921 98.646 245.415 96.3746C246.915 95.5887 248.576 95.1594 250.269 95.12M250.269 94.6854C248.508 94.7217 246.779 95.1652 245.218 95.981C240.814 98.2114 237.174 103.025 234.451 111.176C232.877 108.273 230.991 107.002 228.826 107.002C226.968 107.124 225.184 107.776 223.685 108.88C220.454 110.979 218.256 113.701 216.255 117.818L216.214 117.891C214.48 121.392 213.531 125.228 213.435 129.134C213.435 137.768 216.977 141.885 221.569 144.976C224.345 146.809 227.416 148.152 230.646 148.945L235.181 150.003L239.716 143.713C243.017 139.076 246.048 134.252 248.793 129.265C253.393 120.86 256.993 112.627 256.927 104.025C256.927 100.327 255.853 97.58 254.139 96.0056C253.057 95.124 251.688 94.6715 250.294 94.7346L250.269 94.6854Z" fill="black"/>
</g>
<path d="M253.664 119.187L244.841 124.287L241.561 112.356C241.514 112.176 241.408 112.017 241.259 111.905C241.11 111.793 240.927 111.735 240.741 111.741C240.549 111.738 240.362 111.801 240.212 111.921C240.062 112.041 239.959 112.209 239.921 112.397L234.812 135.735L230.515 123.976C230.506 123.758 230.412 123.553 230.252 123.406C230.092 123.258 229.88 123.18 229.662 123.189C229.445 123.197 229.24 123.292 229.092 123.452C228.945 123.612 228.866 123.824 228.875 124.041L225.972 134.349L216.264 139.958C216.583 140.422 216.928 140.868 217.297 141.294L227.137 135.628C227.327 135.518 227.468 135.339 227.53 135.128L229.818 126.993L234.222 139.015C234.28 139.183 234.392 139.327 234.54 139.426C234.688 139.526 234.864 139.574 235.042 139.564C235.224 139.555 235.397 139.485 235.535 139.367C235.673 139.248 235.768 139.086 235.804 138.908L240.806 116.096L243.447 125.78C243.478 125.904 243.538 126.02 243.622 126.117C243.706 126.214 243.812 126.29 243.931 126.339C244.05 126.387 244.179 126.407 244.307 126.397C244.435 126.387 244.559 126.347 244.668 126.28L252.508 121.762C252.959 120.901 253.319 120.048 253.664 119.187Z" fill="white"/>
<path d="M290.695 338.488C290.359 339.599 290.331 340.781 290.613 341.907C290.941 342.596 292.991 344.859 297.173 345.679C301.355 346.499 307.103 345.679 309.58 345.532C312.056 345.384 319.83 346.352 322.298 346.663C326.185 347.188 329.169 346.335 330.621 344.933C330.856 344.651 331.029 344.323 331.129 343.97C331.23 343.617 331.255 343.246 331.203 342.883C331.195 341.947 331.057 341.017 330.793 340.12L290.695 338.488Z" fill="#263238"/>
<path d="M330.153 336.052C330.227 336.372 330.301 336.7 330.367 337.028C330.745 338.678 330.864 340.377 330.719 342.063C330.219 343.293 328.85 343.974 327.743 344.318C324.815 345.253 322.593 345.138 319.354 344.49C316.096 344.016 312.805 343.813 309.514 343.883C306.964 344.056 303.454 344.548 300.904 344.31C298.735 344.22 296.595 343.782 294.565 343.014C292.868 342.293 291.13 341.374 290.711 339.603C290.211 335.913 291.761 334.289 293.508 333.256C295.254 332.223 297.739 332.305 300.396 332.133C302.798 331.969 304.553 331.969 306.693 331.805C308.544 331.715 310.382 331.46 312.187 331.042C313.827 330.534 315.467 328.476 316.14 328.402C316.14 328.402 326.841 328.32 327.857 328.402C329.038 328.5 329.399 332.157 329.547 332.953C329.661 333.576 329.686 334.248 329.85 334.847C329.957 335.249 330.055 335.651 330.153 336.052Z" fill="#37474F"/>
<path d="M297.181 343.818C296.845 341.161 296.361 335.405 301.281 332.075H301.896C299.687 331.436 297.341 331.436 295.131 332.075C291.22 333.117 289.481 336.282 290.457 339.628C290.474 339.595 291.343 342.834 297.181 343.818Z" fill="#FAFAFA"/>
<path d="M311.457 331.231C309.875 332.633 309.325 335.823 309.325 335.823C309.12 337.02 306.956 337.2 307.161 336.044C307.491 334.455 308.129 332.945 309.038 331.6C309.78 331.208 310.633 331.078 311.457 331.231Z" fill="#FAFAFA"/>
<path d="M307.021 331.78C305.828 332.949 305.048 334.474 304.799 336.126C304.578 337.274 302.774 337.258 302.905 336.126C302.905 336.126 303.11 333.297 304.799 331.977C305.126 331.768 305.499 331.64 305.886 331.606C306.273 331.572 306.662 331.632 307.021 331.78Z" fill="#FAFAFA"/>
<path d="M328.185 320.62C328.185 320.62 327.898 327.5 327.521 329.755C327.292 331.1 325.529 332.51 321.142 332.362C318.058 332.256 315.631 332.51 315.754 330.099L316.025 323.072L328.185 320.62Z" fill="#FFA8A7"/>
<path d="M335.065 304.368C334.909 306.245 334.655 307.943 335.426 310.009C336.525 312.978 338.854 314.339 340.223 315.503C341.664 316.931 342.993 318.466 344.2 320.095C345.545 321.735 345.897 322.711 347.915 324.499C348.92 325.273 350.109 325.772 351.365 325.949C352.621 326.126 353.902 325.974 355.081 325.507C356.828 324.761 357.435 324.171 357.328 321.489C357.222 318.808 348.677 317.898 348.677 317.898L335.065 304.368Z" fill="#263238"/>
<path d="M356.221 313.502C356.951 313.765 357.131 315.085 357.246 317.709C357.328 319.693 358.206 322.629 355.327 323.851C353.007 324.859 349.3 324.187 347.734 322.317C345.783 319.98 344.454 317.922 341.666 315.077C339.206 312.617 336.746 311.797 335.656 306.836C334.959 303.654 335.508 302.342 337.755 301.432C340.846 300.177 345.692 304.269 348.12 304.917C350.202 305.466 355.491 313.24 356.221 313.502Z" fill="#37474F"/>
<path d="M348.12 304.917L347.71 304.778C346.327 304.829 344.982 305.241 343.808 305.974C342.635 306.706 341.673 307.732 341.018 308.951C340.608 309.812 341.838 310.485 342.658 309.812C344.38 306.532 347.923 305.827 349.341 305.671C348.992 305.336 348.576 305.079 348.12 304.917Z" fill="#FAFAFA"/>
<path d="M350.112 306.409C348.814 306.531 347.567 306.973 346.482 307.696C345.397 308.419 344.509 309.399 343.897 310.55C343.487 311.37 344.758 312.084 345.537 311.37C346.122 310.344 346.924 309.458 347.887 308.774C348.85 308.09 349.951 307.625 351.113 307.41C350.76 307.082 350.432 306.729 350.112 306.409Z" fill="#FAFAFA"/>
<path d="M356.639 308.763L356.221 314.298C356.221 314.298 352.703 316.864 347.66 314.511C347.513 314.208 347.086 309.255 347.086 309.255L356.639 308.763Z" fill="#FFA8A7"/>
<path d="M337.074 310.485C337.074 310.485 337.312 304.605 345.668 303.794L346.152 304.048C345.201 302.574 343.742 301.5 342.052 301.03C339.28 300.317 337.082 301.03 335.623 302.785C334.163 304.54 335.631 309.345 337.074 310.485Z" fill="#FAFAFA"/>
<path d="M359.075 271.896C357.878 262.211 357.435 256.816 357.435 256.816C357.435 256.816 357.197 243.179 358.025 230.576C358.386 225.049 358.575 218.932 358.689 213.356C358.842 207.215 358.353 201.076 357.23 195.037C357.23 195.037 314.352 186.509 313.819 202.237C313.171 221.097 313.253 253.331 312.523 265.639C312.122 272.552 312.819 278.283 313.253 291.715C313.606 302.851 313.499 330.255 313.499 330.255C318.222 336.741 329.374 331.797 329.374 331.797C329.374 331.797 332.818 293.314 333.327 285.36C333.868 276.807 332.966 272.478 332.966 272.478L337.386 232.634C337.386 232.634 337.722 245.418 338.099 252.314C338.476 259.21 339.485 263.45 341.281 276.315C342.839 287.484 346.152 315.987 346.152 315.987C351.892 319.382 357.435 315.987 357.435 315.987C357.435 315.987 360.272 281.58 359.075 271.896Z" fill="#455A64"/>
<path d="M353.22 216.865C353.22 216.865 347.849 223.721 340.92 226.664C340.92 226.664 337.919 250.764 337.943 250.289L337.164 226.033C337.164 226.033 347.48 221.474 353.22 216.865Z" fill="#37474F"/>
<path d="M353.072 139.4C357.689 138.367 362.912 141.663 366.389 149.019C369.751 156.054 378.935 173.824 379.157 178.801C379.394 183.959 356.451 199.604 357.017 199.301C357.197 199.211 353.056 187.468 353.056 187.468L364.2 178.243L358.14 165.763L353.072 139.4Z" fill="#FFA8A7"/>
<path d="M350.645 138.293C354.532 137.817 361.576 139.285 364.265 143.959C368.169 150.724 371.727 158.547 376.262 168.658C376.262 168.658 372.9 175.939 363.224 176.628L357.427 166.46L350.645 138.293Z" fill="#37474F"/>
<path d="M331.08 132.2L331.752 146.55L345.971 145.788L345.537 129.117L331.08 132.2Z" fill="#3B72AA"/>
<path d="M359.936 145.517C358.739 141.606 354.606 138.383 349.382 138.227C348.218 138.227 345.774 138.227 345.774 138.227C345.184 140.646 337.779 141.507 331.449 140.056C329.538 140.564 321.609 142.516 319.969 143.008C315.418 144.517 314.016 149.158 313.311 164C313.311 164 313.45 193.258 313.311 207.222C321.314 211.445 333.679 210.92 342.478 210.027C356.303 208.633 358.361 203.622 358.361 203.622C357.779 195.48 358.132 192.413 358.361 184.377C358.534 178.334 360.272 171.946 360.821 165.099C361.633 154.923 360.748 148.207 359.936 145.517Z" fill="#3B72AA"/>
<path d="M328.858 134.923C325.578 134.693 321.478 137.309 320.42 142.91L323.093 142.196L328.858 134.923Z" fill="#3B72AA"/>
<path opacity="0.3" d="M328.858 134.923C325.578 134.693 321.478 137.309 320.42 142.91L323.093 142.196L328.858 134.923Z" fill="black"/>
<path d="M331.26 136.12C333.72 136.94 340.895 136.825 343.298 136.12C345.701 135.415 345.676 134.349 345.676 134.349V133.143C347.062 133.14 348.415 133.56 349.555 134.349C351.088 135.595 353.728 140.089 353.655 142.245C353.581 144.402 348.972 150.093 340.084 149.953C331.195 149.814 326.201 146.526 324.668 144.361L323.126 142.188C323.126 142.188 325.233 137.858 327.308 136.038C328.372 135.007 329.736 134.341 331.203 134.136L331.26 136.12Z" fill="#DFEFFF"/>
<path opacity="0.2" d="M331.26 136.12C333.72 136.94 340.895 136.825 343.298 136.12C345.701 135.415 345.676 134.349 345.676 134.349V133.143C347.062 133.14 348.415 133.56 349.555 134.349C351.088 135.595 353.728 140.089 353.655 142.245C353.581 144.402 348.972 150.093 340.084 149.953C331.195 149.814 326.201 146.526 324.668 144.361L323.126 142.188C323.126 142.188 325.233 137.858 327.308 136.038C328.372 135.007 329.736 134.341 331.203 134.136L331.26 136.12Z" fill="black"/>
<path d="M321.511 114.603C321.511 114.603 318.124 119.745 318.509 120.245C318.895 120.745 321.388 121.212 321.388 121.212L321.511 114.603Z" fill="#F28F8F"/>
<path d="M330.924 100.368C324.069 101.819 321.33 103.828 320.904 115.546C320.494 126.944 321.929 130.7 323.421 132.233C324.43 133.266 330.047 133.455 332.876 132.668C336.418 131.692 344.43 128.855 348.177 123.131C352.589 116.391 353.745 107.256 348.997 103.509C342.38 98.236 333.72 99.7776 330.924 100.368Z" fill="#FFA8A7"/>
<path d="M323.421 132.225C324.241 133.045 328.169 133.357 331.121 132.996L331.08 131.298C328.634 132.201 326.011 132.518 323.421 132.225Z" fill="#F28F8F"/>
<path d="M319.994 104.771C321.701 105.996 323.82 106.505 325.898 106.19C325.856 107.109 326.103 108.017 326.603 108.789C327.299 109.842 328.354 110.606 329.571 110.938C328.821 112.409 328.422 114.034 328.407 115.686C328.361 116.204 328.472 116.724 328.727 117.178C328.805 117.343 328.929 117.482 329.084 117.58C329.238 117.677 329.417 117.729 329.6 117.729C329.783 117.729 329.962 117.677 330.116 117.58C330.271 117.482 330.395 117.343 330.473 117.178C330.859 116.306 331.343 115.48 331.916 114.718C332.66 113.829 333.705 113.245 334.852 113.078C339.157 112.611 339.698 118.244 337.976 120.581C335.155 124.402 332.761 121.811 332.761 121.811C332.651 123.602 332.923 125.396 333.559 127.074C334.196 128.753 335.181 130.276 336.451 131.544C339.511 132.446 342.755 132.528 345.856 131.782C349.678 126.526 352.08 123.968 354.122 119.433C358.435 109.831 356.352 103.804 353.015 101.262C352.359 96.842 348.874 94.8576 344.897 93.9474C338.96 92.578 333.417 96.104 327.529 94.7674C326.563 94.5652 325.608 94.3134 324.668 94.013C324.305 93.8432 323.892 93.8168 323.511 93.9392C323.3 94.0794 323.135 94.2785 323.036 94.5116C322.937 94.7448 322.908 95.002 322.954 95.2512C323.028 96.3828 324.176 97.6374 324.758 98.2442C323.472 98.3619 322.176 98.2873 320.912 98.0228C320.473 97.9406 320.023 97.9406 319.584 98.0228C319.102 98.219 318.695 98.5628 318.421 99.0048C318.147 99.4468 318.02 99.9642 318.058 100.483C318.063 101.293 318.238 102.094 318.571 102.832C318.905 103.571 319.389 104.232 319.994 104.771Z" fill="#263238"/>
<path d="M353.122 102.689L357.222 100.229C356.895 99.6849 356.367 99.293 355.751 99.1393C355.136 98.9855 354.485 99.0824 353.942 99.4086C353.398 99.7348 353.006 100.264 352.852 100.879C352.699 101.494 352.795 102.145 353.122 102.689Z" fill="#263238"/>
<path d="M299.69 167.28C298.761 163.628 297.865 159.971 297.001 156.308C296.181 152.938 294.918 149.035 296.074 145.591C296.731 144.087 297.557 142.662 298.534 141.343C299.38 139.954 300.094 138.488 300.666 136.965C300.953 136.227 301.216 135.472 301.486 134.726C301.757 133.98 302.142 133.553 301.962 132.84C301.363 130.503 298.346 133.57 297.731 134.529C297.458 135.033 297.139 135.51 296.779 135.956C296.386 136.374 295.426 136.899 294.967 136.284C294.814 136.037 294.729 135.754 294.721 135.464C294.41 131.864 295.705 128.642 296.779 125.28C296.949 124.838 297.051 124.374 297.083 123.902C297.102 123.666 297.071 123.429 296.99 123.207C296.909 122.985 296.781 122.783 296.615 122.615C296.348 122.41 296.031 122.279 295.697 122.236C295.363 122.192 295.024 122.238 294.713 122.369C294.106 122.574 293.581 122.959 292.975 123.148C292.368 123.336 291.917 123.336 291.384 123.476C290.119 123.758 288.902 124.219 287.768 124.845C285.8 126.001 284.93 127.69 284.414 129.839C283.793 132.478 283.583 135.197 283.791 137.899C283.93 139.695 284.25 141.466 284.471 143.238L285.209 149.166C285.709 153.119 285.857 172.864 286.538 176.792C287.218 180.72 288.53 183.352 291.638 184.656C296.148 186.493 303.438 178.194 307.579 173.897L299.69 167.28Z" fill="#FFA8A7"/>
<path d="M298.042 165.041C295.139 167.214 291.523 170.831 290.793 174.455C290.793 174.455 290.072 167.936 298.042 162.155V165.041Z" fill="#F28F8F"/>
<path d="M319.739 143.098C316.951 143.361 312.359 143.459 307.685 148.486C302.265 154.357 293.909 165.935 293.909 165.935C293.909 165.935 295 175.152 303.872 178.457C303.872 178.457 316.771 166.157 319.543 160.859C322.314 155.562 322.937 146.78 319.739 143.098Z" fill="#37474F"/>
<path d="M316.025 123.615L312.499 121.721L314.524 119.991L307.202 116.563L310.4 114.71L302.511 110.511L307.202 114.652L303.389 116.563L311.99 120.286L309.867 122.41L316.025 123.615Z" fill="#DFEFFF"/>
<path d="M317.821 118.966L315.525 116.768L316.779 115.841L314.762 113.447L316.697 112.791L316.025 109.757L317.386 113.029L316.025 113.619L318.206 116.014L316.73 117.063L317.821 118.966Z" fill="#DFEFFF"/>
<path d="M316.484 127.084L312.154 130.462L310.555 128.109L306.767 130.167L305.217 127.256L299.354 128.756L306.136 125.509L308.079 128.191L311.228 126.501L312.54 128.756L316.484 127.084Z" fill="#DFEFFF"/>
<path d="M286.382 187.542C286.514 187.433 286.683 187.38 286.854 187.395C287.024 187.411 287.182 187.493 287.292 187.624C288.13 188.566 289.219 189.249 290.432 189.595C291.644 189.94 292.93 189.934 294.139 189.576C294.221 189.547 294.309 189.535 294.396 189.54C294.483 189.546 294.569 189.569 294.647 189.609C294.725 189.648 294.794 189.703 294.85 189.77C294.907 189.837 294.949 189.914 294.974 189.998C295 190.082 295.008 190.169 294.999 190.256C294.989 190.343 294.962 190.427 294.919 190.504C294.877 190.58 294.819 190.647 294.75 190.7C294.68 190.753 294.601 190.792 294.516 190.814C293.066 191.243 291.524 191.249 290.071 190.83C288.619 190.412 287.316 189.587 286.316 188.452C286.26 188.389 286.217 188.314 286.19 188.234C286.163 188.153 286.152 188.068 286.158 187.984C286.164 187.899 286.187 187.816 286.226 187.74C286.264 187.665 286.317 187.597 286.382 187.542Z" fill="#E0E0E0"/>
<path d="M287.038 191.88C287.153 191.784 287.298 191.731 287.448 191.731C287.598 191.731 287.743 191.784 287.858 191.88C288.525 192.363 289.29 192.693 290.099 192.849C290.908 193.005 291.741 192.982 292.54 192.782C292.709 192.751 292.885 192.787 293.027 192.884C293.17 192.981 293.269 193.13 293.303 193.299C293.319 193.382 293.319 193.467 293.303 193.55C293.286 193.633 293.253 193.712 293.206 193.782C293.159 193.852 293.098 193.912 293.027 193.959C292.957 194.005 292.877 194.037 292.794 194.053C291.806 194.282 290.78 194.292 289.788 194.081C288.796 193.87 287.863 193.443 287.054 192.831C286.989 192.776 286.936 192.709 286.898 192.633C286.86 192.557 286.837 192.475 286.831 192.39C286.824 192.305 286.835 192.22 286.862 192.14C286.89 192.059 286.932 191.985 286.989 191.921C287.003 191.905 287.02 191.891 287.038 191.88Z" fill="#E0E0E0"/>
<path d="M367.554 142.18C367.478 142.219 367.395 142.243 367.31 142.25C367.225 142.256 367.14 142.246 367.059 142.219C366.978 142.193 366.903 142.15 366.838 142.094C366.774 142.038 366.722 141.969 366.684 141.893C366.086 140.783 365.185 139.866 364.086 139.248C362.988 138.629 361.736 138.335 360.477 138.4C360.392 138.404 360.307 138.393 360.226 138.364C360.146 138.336 360.072 138.293 360.008 138.236C359.88 138.121 359.802 137.961 359.792 137.789C359.783 137.617 359.841 137.448 359.956 137.32C360.071 137.191 360.231 137.114 360.403 137.104C361.915 137.025 363.417 137.379 364.735 138.124C366.052 138.869 367.13 139.974 367.841 141.311C367.915 141.464 367.927 141.641 367.874 141.804C367.82 141.966 367.705 142.101 367.554 142.18Z" fill="#E0E0E0"/>
<path d="M367.914 137.834C367.777 137.906 367.618 137.926 367.467 137.89C367.317 137.854 367.184 137.764 367.094 137.637C366.565 137.019 365.909 136.521 365.17 136.179C364.432 135.836 363.628 135.657 362.814 135.653C362.729 135.649 362.645 135.629 362.568 135.594C362.491 135.558 362.421 135.508 362.363 135.445C362.305 135.383 362.26 135.31 362.231 135.23C362.201 135.15 362.188 135.065 362.191 134.98C362.194 134.895 362.214 134.812 362.25 134.734C362.285 134.657 362.335 134.587 362.398 134.529C362.46 134.471 362.534 134.426 362.613 134.397C362.693 134.367 362.778 134.354 362.863 134.357C363.874 134.367 364.871 134.598 365.783 135.035C366.696 135.471 367.501 136.102 368.144 136.883C368.236 137.021 368.271 137.191 368.24 137.355C368.21 137.519 368.116 137.664 367.98 137.76L367.914 137.834Z" fill="#E0E0E0"/>
<path d="M379.378 185.099C379.296 184.948 379.276 184.772 379.324 184.607C379.372 184.443 379.482 184.304 379.632 184.221C380.712 183.572 381.585 182.629 382.15 181.502C382.715 180.376 382.948 179.112 382.822 177.858C382.812 177.773 382.819 177.687 382.842 177.605C382.866 177.523 382.905 177.447 382.959 177.38C383.012 177.314 383.078 177.259 383.153 177.218C383.229 177.178 383.311 177.153 383.396 177.145C383.567 177.126 383.738 177.176 383.871 177.284C384.005 177.392 384.091 177.548 384.109 177.719C384.256 179.218 383.974 180.728 383.296 182.074C382.618 183.419 381.572 184.545 380.28 185.32C380.207 185.366 380.125 185.397 380.039 185.41C379.954 185.424 379.866 185.42 379.782 185.4C379.698 185.379 379.619 185.342 379.55 185.29C379.48 185.238 379.422 185.173 379.378 185.099Z" fill="#E0E0E0"/>
<path d="M383.732 185.254C383.659 185.121 383.634 184.966 383.663 184.816C383.691 184.667 383.771 184.532 383.888 184.434C384.483 183.878 384.95 183.199 385.257 182.444C385.565 181.69 385.704 180.878 385.667 180.064C385.667 179.892 385.736 179.727 385.857 179.606C385.979 179.484 386.143 179.416 386.315 179.416C386.487 179.416 386.652 179.484 386.773 179.606C386.895 179.727 386.963 179.892 386.963 180.064C386.998 181.073 386.814 182.078 386.423 183.01C386.033 183.941 385.445 184.777 384.7 185.459C384.633 185.512 384.557 185.551 384.475 185.575C384.393 185.598 384.307 185.605 384.223 185.595C384.138 185.585 384.056 185.558 383.982 185.517C383.908 185.475 383.842 185.42 383.79 185.353L383.732 185.254Z" fill="#E0E0E0"/>
<path d="M308.3 263.22C308.454 263.297 308.57 263.432 308.625 263.594C308.681 263.757 308.67 263.934 308.596 264.089C308.076 265.237 307.895 266.509 308.072 267.757C308.249 269.004 308.778 270.175 309.596 271.133C309.707 271.265 309.761 271.435 309.747 271.607C309.734 271.779 309.653 271.939 309.522 272.051C309.393 272.163 309.224 272.218 309.054 272.206C308.883 272.194 308.724 272.115 308.612 271.986C307.629 270.833 306.995 269.423 306.786 267.923C306.577 266.422 306.801 264.893 307.431 263.515C307.509 263.362 307.643 263.245 307.806 263.19C307.968 263.135 308.146 263.146 308.3 263.22Z" fill="#E0E0E0"/>
<path d="M304.627 265.557C304.767 265.623 304.879 265.737 304.942 265.879C305.005 266.02 305.015 266.179 304.971 266.328C304.799 267.124 304.802 267.949 304.978 268.744C305.155 269.54 305.503 270.288 305.996 270.936C306.093 271.077 306.131 271.25 306.102 271.419C306.073 271.587 305.979 271.738 305.84 271.838C305.7 271.937 305.526 271.976 305.357 271.947C305.188 271.918 305.037 271.823 304.938 271.682C304.331 270.872 303.907 269.938 303.697 268.946C303.488 267.955 303.497 266.93 303.725 265.942C303.75 265.86 303.791 265.784 303.846 265.718C303.901 265.651 303.969 265.597 304.045 265.557C304.122 265.518 304.205 265.493 304.291 265.486C304.377 265.479 304.463 265.489 304.545 265.516L304.627 265.557Z" fill="#E0E0E0"/>
<path d="M260.109 38.089C260.069 37.3244 259.848 36.5802 259.464 35.9174C259.081 35.2546 258.546 34.6921 257.903 34.276L256.116 33.2346C255.432 32.8926 254.678 32.7145 253.914 32.7145C253.15 32.7145 252.396 32.8926 251.712 33.2346L210.179 57.236C209.537 57.6531 209.003 58.2158 208.62 58.8784C208.236 59.541 208.015 60.2847 207.973 61.049V82.5248C208.016 83.289 208.237 84.0324 208.621 84.6949C209.004 85.3574 209.538 85.9202 210.179 86.3378L211.975 87.371C212.657 87.7187 213.411 87.9 214.177 87.9C214.942 87.9 215.697 87.7187 216.378 87.371L257.903 63.3778C258.546 62.9617 259.081 62.3992 259.464 61.7364C259.848 61.0736 260.069 60.3294 260.109 59.5648V38.089Z" fill="#5065DB"/>
<path opacity="0.5" d="M260.109 38.089C260.069 37.3244 259.848 36.5802 259.464 35.9174C259.081 35.2546 258.546 34.6921 257.903 34.276L256.116 33.2346C255.432 32.8926 254.678 32.7145 253.914 32.7145C253.15 32.7145 252.396 32.8926 251.712 33.2346L210.179 57.236C209.537 57.6531 209.003 58.2158 208.62 58.8784C208.236 59.541 208.015 60.2847 207.973 61.049V82.5248C208.016 83.289 208.237 84.0324 208.621 84.6949C209.004 85.3574 209.538 85.9202 210.179 86.3378L211.975 87.371C212.657 87.7187 213.411 87.9 214.177 87.9C214.942 87.9 215.697 87.7187 216.378 87.371L257.903 63.3778C258.546 62.9617 259.081 62.3992 259.464 61.7364C259.848 61.0736 260.069 60.3294 260.109 59.5648V38.089Z" fill="white"/>
<path opacity="0.2" d="M207.973 82.5248C208.016 83.2889 208.237 84.0324 208.621 84.6949C209.004 85.3574 209.538 85.9202 210.179 86.3378L211.975 87.371C212.595 87.6836 213.275 87.8613 213.969 87.8923C214.663 87.9234 215.355 87.8072 216.001 87.5514C214.96 87.945 214.173 87.3628 214.173 86.1V64.6242C214.199 63.8564 214.422 63.1082 214.82 62.4512L208.621 58.876C208.222 59.5326 207.999 60.281 207.973 61.049V82.5248Z" fill="black"/>
<path opacity="0.3" d="M260.035 37.4657C259.781 36.5309 258.928 36.2276 257.911 36.818L216.378 60.8112C215.725 61.2122 215.187 61.7777 214.82 62.4512L208.629 58.876C208.996 58.2046 209.53 57.6396 210.179 57.236L251.704 33.2428C252.386 32.895 253.14 32.7137 253.906 32.7137C254.671 32.7137 255.426 32.895 256.107 33.2428L257.911 34.276C258.463 34.6364 258.935 35.1049 259.3 35.6532C259.665 36.2015 259.915 36.8181 260.035 37.4657Z" fill="white"/>
<path d="M214.181 71.5696L207.99 67.9944L200.528 75.1776C200.416 75.2906 200.33 75.4276 200.279 75.5783C200.228 75.729 200.211 75.8895 200.231 76.0475C200.251 76.2055 200.306 76.357 200.393 76.4904C200.48 76.6238 200.596 76.7357 200.733 76.8176L206.825 80.36C207.078 80.492 207.361 80.5516 207.645 80.5322L214.205 79.2776V71.5696H214.181Z" fill="#5065DB"/>
<path opacity="0.5" d="M214.181 71.5696L207.99 67.9944L200.528 75.1776C200.416 75.2906 200.33 75.4276 200.279 75.5783C200.228 75.729 200.211 75.8895 200.231 76.0475C200.251 76.2055 200.306 76.357 200.393 76.4904C200.48 76.6238 200.596 76.7357 200.733 76.8176L206.825 80.36C207.078 80.492 207.361 80.5516 207.645 80.5322L214.205 79.2776V71.5696H214.181Z" fill="white"/>
<path opacity="0.3" d="M206.825 80.36L203.545 78.4822L203.16 78.228L201.405 77.2112L201.192 77.08L200.725 76.8094C200.588 76.7275 200.472 76.6156 200.385 76.4822C200.298 76.3488 200.242 76.1973 200.223 76.0393C200.203 75.8813 200.219 75.7209 200.271 75.5701C200.322 75.4194 200.407 75.2824 200.52 75.1694L207.982 67.9862L214.181 71.5696L206.719 78.72C206.6 78.8253 206.507 78.9562 206.447 79.1028C206.387 79.2495 206.361 79.4079 206.371 79.5661C206.382 79.7242 206.428 79.878 206.507 80.0156C206.585 80.1531 206.694 80.271 206.825 80.36Z" fill="white"/>
<path d="M226.309 64.9685C225.452 65.5258 224.739 66.2774 224.227 67.1623C223.716 68.0471 223.42 69.0402 223.365 70.0607C223.365 71.9303 224.685 72.6929 226.309 71.7581C227.164 71.2004 227.876 70.4485 228.386 69.5636C228.896 68.6788 229.19 67.6859 229.244 66.6659C229.244 64.7799 227.932 64.0337 226.309 64.9685Z" fill="white"/>
<path d="M237.141 58.7038C236.285 59.2615 235.573 60.0134 235.063 60.8983C234.553 61.7832 234.259 62.776 234.205 63.796C234.205 65.6656 235.517 66.4282 237.141 65.4852C237.995 64.9283 238.707 64.1777 239.217 63.2943C239.727 62.411 240.021 61.4198 240.076 60.4012C240.06 58.5234 238.764 57.7608 237.141 58.7038Z" fill="white"/>
<path d="M247.973 52.4307C247.119 52.9899 246.408 53.7421 245.898 54.6267C245.388 55.5113 245.093 56.5034 245.037 57.523C245.037 59.4008 246.349 60.1552 247.973 59.2204C248.831 58.6623 249.545 57.9094 250.056 57.023C250.568 56.1366 250.863 55.1419 250.917 54.12C250.917 52.2586 249.597 51.4959 247.973 52.4307Z" fill="white"/>
<path d="M340.051 80.1877L337.074 74.6199L339.469 67.7073V63.4515L332.138 67.6827V71.9139L335.287 77.3751C335.339 77.4567 335.412 77.5221 335.5 77.5637L340.051 80.1877Z" fill="#5065DB"/>
<path opacity="0.2" d="M340.051 80.1877L337.074 74.6199L339.469 67.7073V63.4515L332.138 67.6827V71.9139L335.287 77.3751C335.339 77.4567 335.412 77.5221 335.5 77.5637L340.051 80.1877Z" fill="black"/>
<path d="M362.314 35.8995C362.273 35.137 362.053 34.395 361.671 33.7338C361.289 33.0725 360.756 32.5109 360.116 32.0947L358.329 31.0615C357.648 30.7139 356.895 30.5326 356.131 30.5326C355.367 30.5326 354.614 30.7139 353.933 31.0615L312.499 54.9973C311.862 55.4187 311.331 55.9826 310.95 56.6444C310.568 57.3062 310.346 58.0478 310.301 58.8103V80.2369C310.342 80.9994 310.562 81.7415 310.944 82.4027C311.326 83.0639 311.859 83.6255 312.499 84.0417L314.286 85.0749C314.969 85.4156 315.721 85.593 316.484 85.593C317.247 85.593 317.999 85.4156 318.682 85.0749L336.722 74.5789L339.87 80.0237C339.916 80.0965 339.981 80.1552 340.058 80.1931C340.135 80.2309 340.221 80.2465 340.306 80.238C340.391 80.2294 340.473 80.1971 340.541 80.1448C340.608 80.0924 340.66 80.0221 340.69 79.9417L344.02 70.3559L360.075 61.1309C360.715 60.7147 361.248 60.1531 361.63 59.4919C362.012 58.8307 362.232 58.0886 362.273 57.3261L362.314 35.8995Z" fill="#5065DB"/>
<path d="M322.716 62.9595L355.844 43.8289C356.828 43.2631 357.623 43.6649 357.623 44.7309C357.579 45.3269 357.395 45.9039 357.085 46.4154C356.776 46.9268 356.351 47.3583 355.844 47.6747L322.716 66.8053C321.74 67.3711 320.945 66.9693 320.945 65.9033C320.989 65.3083 321.172 64.7319 321.48 64.2206C321.788 63.7094 322.211 63.2774 322.716 62.9595Z" fill="white"/>
<path d="M322.716 71.4793L355.844 52.3569C356.828 51.7911 357.623 52.1929 357.623 53.2507C357.58 53.8481 357.396 54.4268 357.087 54.9397C356.778 55.4527 356.352 55.8854 355.844 56.2027L322.716 75.3251C321.74 75.8991 320.945 75.4891 320.945 74.4313C320.988 73.8348 321.171 73.2568 321.478 72.744C321.786 72.2312 322.21 71.798 322.716 71.4793Z" fill="white"/>
<path opacity="0.2" d="M310.301 80.2369C310.342 80.9994 310.562 81.7415 310.944 82.4027C311.326 83.0639 311.859 83.6255 312.499 84.0417L314.286 85.0749C314.906 85.3863 315.584 85.5634 316.276 85.5945C316.969 85.6256 317.66 85.51 318.304 85.2553C317.271 85.6407 316.484 85.0585 316.484 83.8039V62.3773C316.51 61.6132 316.73 60.8682 317.124 60.2125L310.941 56.6373C310.548 57.296 310.327 58.0436 310.301 58.8103V80.2369Z" fill="black"/>
<path opacity="0.2" d="M362.24 35.2599C361.986 34.3251 361.133 34.0299 360.116 34.6121L318.682 58.5562C318.029 58.9565 317.495 59.5223 317.132 60.1961L310.949 56.6291C311.317 55.9589 311.85 55.3942 312.499 54.9891L353.925 31.0451C354.609 30.7031 355.363 30.525 356.127 30.525C356.891 30.525 357.645 30.7031 358.329 31.0451L360.116 32.0783C360.668 32.4361 361.141 32.9028 361.507 33.4499C361.872 33.997 362.121 34.613 362.24 35.2599Z" fill="white"/>
<g opacity="0.2">
<path d="M27.1168 158.28L22 155.328V141.552L27.1168 144.504V158.28Z" fill="black"/>
<path d="M39.0478 123.84L33.931 120.888V134.664L39.0478 137.616V123.84Z" fill="black"/>
<path d="M39.0478 165.176L33.931 162.224V154.344L39.0478 151.392V165.176Z" fill="black"/>
</g>
<path d="M39.0478 137.616L33.931 134.664L22 141.552L27.1168 144.504L39.0478 137.616Z" fill="#DFEFFF"/>
<path d="M50.9787 116.952L45.8619 114L33.9309 120.888L39.0477 123.84L50.9787 116.952Z" fill="#DFEFFF"/>
<path d="M62.9097 123.84L57.7929 120.888L50.9541 124.808L50.9377 130.753L62.9097 123.84Z" fill="#DFEFFF"/>
</g>
<defs>
<filter id="filter0_d_36_226" x="-12" y="-16" width="450" height="450" filterUnits="userSpaceOnUse" color-interpolation-filters="sRGB">
<feFlood flood-opacity="0" result="BackgroundImageFix"/>
<feColorMatrix in="SourceAlpha" type="matrix" values="0 0 0 0 0 0 0 0 0 0 0 0 0 0 0 0 0 0 127 0" result="hardAlpha"/>
<feOffset dy="4"/>
<feGaussianBlur stdDeviation="10"/>
<feComposite in2="hardAlpha" operator="out"/>
<feColorMatrix type="matrix" values="0 0 0 0 0 0 0 0 0 0 0 0 0 0 0 0 0 0 0.25 0"/>
<feBlend mode="normal" in2="BackgroundImageFix" result="effect1_dropShadow_36_226"/>
<feBlend mode="normal" in="SourceGraphic" in2="effect1_dropShadow_36_226" result="shape"/>
</filter>
</defs>
</svg>
