<svg width="65" height="65" viewBox="0 0 65 65" fill="none" xmlns="http://www.w3.org/2000/svg">
<g filter="url(#filter0_ddii_16_4881)">
<rect x="4" y="4" width="48" height="48.2496" rx="24" fill="#F7F7F9"/>
</g>
<path d="M28.2886 22.3862C27.2455 22.3862 26.2258 22.7145 25.3585 23.3294C24.4912 23.9444 23.8152 24.8185 23.416 25.8411C23.0169 26.8637 22.9124 27.989 23.1159 29.0747C23.3194 30.1603 23.8217 31.1575 24.5593 31.9402C25.2969 32.7229 26.2366 33.2559 27.2597 33.4719C28.2827 33.6878 29.3432 33.577 30.3069 33.1534C31.2706 32.7298 32.0943 32.0125 32.6738 31.0921C33.2533 30.1718 33.5626 29.0897 33.5626 27.9828C33.5638 27.2475 33.4282 26.5192 33.1636 25.8396C32.899 25.16 32.5106 24.5425 32.0206 24.0226C31.5306 23.5026 30.9487 23.0904 30.3083 22.8096C29.6679 22.5288 28.9815 22.3849 28.2886 22.3862ZM28.2886 31.6205C27.6106 31.6205 26.9478 31.4072 26.3841 31.0074C25.8204 30.6077 25.381 30.0396 25.1215 29.3749C24.8621 28.7102 24.7942 27.9788 24.9265 27.2732C25.0587 26.5675 25.3852 25.9193 25.8646 25.4106C26.3441 24.9019 26.9549 24.5554 27.6198 24.4151C28.2848 24.2747 28.974 24.3467 29.6004 24.6221C30.2268 24.8974 30.7622 25.3636 31.1389 25.9618C31.5155 26.5601 31.7166 27.2634 31.7166 27.9828C31.7148 28.947 31.353 29.8711 30.7105 30.5529C30.0681 31.2347 29.1972 31.6186 28.2886 31.6205ZM35.0074 22.1574C35.0074 22.4156 34.9352 22.6681 34.8 22.8827C34.6648 23.0974 34.4727 23.2648 34.2479 23.3636C34.0231 23.4624 33.7757 23.4883 33.5371 23.4379C33.2984 23.3875 33.0792 23.2632 32.9071 23.0806C32.7351 22.898 32.6179 22.6654 32.5704 22.4121C32.5229 22.1589 32.5473 21.8964 32.6404 21.6578C32.7335 21.4193 32.8912 21.2154 33.0936 21.0719C33.2959 20.9284 33.5337 20.8519 33.7771 20.8519C33.9389 20.8512 34.0992 20.8845 34.2488 20.9499C34.3984 21.0153 34.5343 21.1114 34.6488 21.2327C34.7632 21.3541 34.854 21.4983 34.9157 21.657C34.9774 21.8157 35.009 21.9857 35.0085 22.1574H35.0074ZM38.4953 23.4813C38.5293 21.7843 37.9324 20.1413 36.8338 18.9076C35.6689 17.7457 34.1222 17.113 32.5237 17.1445C30.8253 17.0417 25.7358 17.0417 24.0373 17.1445C22.4394 17.1106 20.8924 17.7417 19.7273 18.9027C18.6334 20.1391 18.0394 21.7809 18.0726 23.4764C17.9758 25.2787 17.9758 30.6796 18.0726 32.4819C18.0387 34.1789 18.6355 35.8219 19.7342 37.0556C20.8994 38.2159 22.4454 38.8481 24.0431 38.8175C25.7415 38.9203 30.8311 38.9203 32.5295 38.8175C34.1287 38.8536 35.677 38.2202 36.8396 37.0544C37.9321 35.8175 38.5262 34.1768 38.4953 32.4819C38.5968 30.6796 38.5968 25.2836 38.4953 23.4813ZM36.3045 34.4127C36.13 34.8837 35.8659 35.3115 35.5287 35.6694C35.1914 36.0273 34.7883 36.3076 34.3444 36.4927C32.9907 37.0629 29.7772 36.9308 28.2817 36.9308C26.7862 36.9308 23.568 37.0531 22.219 36.4927C21.7751 36.3076 21.372 36.0273 21.0347 35.6694C20.6974 35.3115 20.4333 34.8837 20.2588 34.4127C19.7215 32.9762 19.846 29.5661 19.846 27.9792C19.846 26.3922 19.7307 22.9772 20.2588 21.5456C20.4333 21.0746 20.6974 20.6468 21.0347 20.2889C21.372 19.931 21.7751 19.6508 22.219 19.4656C23.5727 18.8954 26.7862 19.0275 28.2817 19.0275C29.7772 19.0275 32.9953 18.9052 34.3444 19.4656C34.7883 19.6508 35.1914 19.931 35.5287 20.2889C35.8659 20.6468 36.13 21.0746 36.3045 21.5456C36.8419 22.9821 36.7173 26.3922 36.7173 27.9792C36.7173 29.5661 36.8442 32.9835 36.3045 34.4127Z" fill="#3B72AA"/>
<defs>
<filter id="filter0_ddii_16_4881" x="-6" y="-6" width="71" height="70.2496" filterUnits="userSpaceOnUse" color-interpolation-filters="sRGB">
<feFlood flood-opacity="0" result="BackgroundImageFix"/>
<feColorMatrix in="SourceAlpha" type="matrix" values="0 0 0 0 0 0 0 0 0 0 0 0 0 0 0 0 0 0 127 0" result="hardAlpha"/>
<feOffset dx="5" dy="4"/>
<feGaussianBlur stdDeviation="4"/>
<feColorMatrix type="matrix" values="0 0 0 0 0 0 0 0 0 0 0 0 0 0 0 0 0 0 0.15 0"/>
<feBlend mode="normal" in2="BackgroundImageFix" result="effect1_dropShadow_16_4881"/>
<feColorMatrix in="SourceAlpha" type="matrix" values="0 0 0 0 0 0 0 0 0 0 0 0 0 0 0 0 0 0 127 0" result="hardAlpha"/>
<feOffset dx="4" dy="4"/>
<feGaussianBlur stdDeviation="4"/>
<feComposite in2="hardAlpha" operator="out"/>
<feColorMatrix type="matrix" values="0 0 0 0 0.6875 0 0 0 0 0.6875 0 0 0 0 0.6875 0 0 0 0.25 0"/>
<feBlend mode="normal" in2="effect1_dropShadow_16_4881" result="effect2_dropShadow_16_4881"/>
<feBlend mode="normal" in="SourceGraphic" in2="effect2_dropShadow_16_4881" result="shape"/>
<feColorMatrix in="SourceAlpha" type="matrix" values="0 0 0 0 0 0 0 0 0 0 0 0 0 0 0 0 0 0 127 0" result="hardAlpha"/>
<feOffset dx="-10" dy="-10"/>
<feGaussianBlur stdDeviation="5"/>
<feComposite in2="hardAlpha" operator="arithmetic" k2="-1" k3="1"/>
<feColorMatrix type="matrix" values="0 0 0 0 0.966667 0 0 0 0 0.966667 0 0 0 0 0.966667 0 0 0 0.13 0"/>
<feBlend mode="normal" in2="shape" result="effect3_innerShadow_16_4881"/>
<feColorMatrix in="SourceAlpha" type="matrix" values="0 0 0 0 0 0 0 0 0 0 0 0 0 0 0 0 0 0 127 0" result="hardAlpha"/>
<feOffset dx="2" dy="4"/>
<feGaussianBlur stdDeviation="3"/>
<feComposite in2="hardAlpha" operator="arithmetic" k2="-1" k3="1"/>
<feColorMatrix type="matrix" values="0 0 0 0 0.804167 0 0 0 0 0.804167 0 0 0 0 0.804167 0 0 0 0.25 0"/>
<feBlend mode="normal" in2="effect3_innerShadow_16_4881" result="effect4_innerShadow_16_4881"/>
</filter>
</defs>
</svg>
