<svg width="1920" height="1593" viewBox="0 0 1920 1593" fill="none" xmlns="http://www.w3.org/2000/svg">
<ellipse cx="208.2" cy="852.75" rx="8.2" ry="8.75" fill="#DFEFFF"/>
<ellipse cx="232.8" cy="852.75" rx="8.2" ry="8.75" fill="#DFEFFF"/>
<ellipse cx="220.5" cy="870.25" rx="8.2" ry="8.75" fill="#DFEFFF"/>
<ellipse cx="199.2" cy="68.75" rx="8.2" ry="8.75" fill="#DFEFFF"/>
<ellipse cx="223.8" cy="68.75" rx="8.2" ry="8.75" fill="#DFEFFF"/>
<ellipse cx="211.5" cy="86.25" rx="8.2" ry="8.75" fill="#DFEFFF"/>
<ellipse cx="1488.2" cy="541.75" rx="8.2" ry="8.75" fill="#DFEFFF"/>
<ellipse cx="1512.8" cy="541.75" rx="8.2" ry="8.75" fill="#DFEFFF"/>
<ellipse cx="1500.5" cy="559.25" rx="8.2" ry="8.75" fill="#DFEFFF"/>
<ellipse cx="1608.2" cy="1295.75" rx="8.2" ry="8.75" fill="#DFEFFF"/>
<ellipse cx="1632.8" cy="1295.75" rx="8.2" ry="8.75" fill="#DFEFFF"/>
<ellipse cx="1620.5" cy="1313.25" rx="8.2" ry="8.75" fill="#DFEFFF"/>
<path d="M1999.68 296.944L1707.03 222.882C1670.33 213.594 1644.37 180.906 1643.64 143.053C1642.86 102.662 1670.93 67.4316 1710.47 59.1758L1993.93 -7.15256e-06L1999.68 296.944Z" fill="#DFEFFF"/>
<path d="M-177 322L114.163 401.713C150.68 411.711 176 444.895 176 482.755C176 523.154 147.25 557.834 107.552 565.323L-177 619V322Z" fill="#DFEFFF"/>
<path d="M2099.68 1133.94L1807.03 1059.88C1770.33 1050.59 1744.37 1017.91 1743.64 980.053C1742.86 939.662 1770.93 904.432 1810.47 896.176L2093.93 837L2099.68 1133.94Z" fill="#DFEFFF"/>
<path d="M-112 1296L179.163 1375.71C215.68 1385.71 241 1418.89 241 1456.76C241 1497.15 212.25 1531.83 172.552 1539.32L-112 1593V1296Z" fill="#DFEFFF"/>
</svg>
