<svg width="201" height="60" viewBox="0 0 201 60" fill="none" xmlns="http://www.w3.org/2000/svg">
<g clip-path="url(#clip0_0_1)">
<rect width="48" height="59.338" fill="white"/>
<path fill-rule="evenodd" clip-rule="evenodd" d="M16.5066 37.3835C16.9489 38.9334 18.4182 39.9603 20.0261 39.846C21.634 39.7298 22.9421 38.5042 23.1576 36.9056V12.5805C22.6741 11.4842 21.5272 10.8357 20.3391 10.9894C19.1509 11.1412 18.2045 12.0595 18.0134 13.242C16.7821 12.5336 15.2267 12.7585 14.2484 13.7893C13.2702 14.82 13.1259 16.3848 13.898 17.5767C14.492 18.9204 15.7908 19.8143 17.2563 19.893C18.7218 19.9699 20.1086 19.2184 20.8413 17.9459C21.6003 18.4107 21.9807 18.6449 21.9807 18.6449C21.3211 19.5088 20.4646 20.2022 19.4826 20.6651C20.4178 21.5853 21.1786 22.6685 21.724 23.8623C21.724 24.1415 21.5535 24.3907 21.2967 24.4957C21.0381 24.6006 20.7439 24.5388 20.549 24.3401C20.0186 22.7903 18.8173 21.5609 17.2787 20.9968C15.3204 20.8788 13.5775 19.7131 12.7229 17.9459C11.4954 18.0808 10.5209 19.0441 10.3729 20.2697C10.2248 21.4953 10.9388 22.6647 12.0989 23.0902C10.3391 23.42 9.03293 24.9099 8.93736 26.6977C8.84178 28.4855 9.9812 30.1066 11.6941 30.6219C10.6709 31.9394 10.6709 33.7816 11.6941 35.099C12.7173 36.4165 14.5014 36.8738 16.0306 36.2085C18.004 35.6107 19.2221 33.6335 18.8661 31.6021C18.51 29.5706 16.694 28.1257 14.6345 28.2344C14.3384 28.1969 14.1154 27.9458 14.1154 27.646C14.1154 27.3461 14.3384 27.095 14.6345 27.0575C17.2675 26.9619 19.5745 28.8135 20.0448 31.4091C20.5152 34.0027 19.0085 36.5477 16.5085 37.3835H16.5066ZM32.7509 45.6856C34.7018 45.0634 38.225 42.2073 39.0252 45.1477C35.9855 47.2148 32.4829 49.0626 28.5155 50.6949C25.8338 51.8137 22.7716 51.5438 19.329 49.8853C14.8743 48.2361 11.4448 48.3579 9.04043 50.2526C9.57828 48.8302 10.431 47.5484 11.5385 46.5045C5.19488 42.6721 0.985772 36.1092 0.15182 28.7423C-0.682131 21.3735 1.95091 14.0366 7.27883 8.88112C1.25938 20.5321 1.82722 38.3618 14.6288 44.0814C16.7578 42.361 20.0523 42.0536 24.5126 43.1631C26.9263 43.6222 27.3799 42.5015 28.999 42.7695C30.472 43.015 31.6846 44.0495 30.622 44.8666C29.9436 45.3895 29.119 45.6987 28.152 45.798C26.694 45.946 24.8986 45.8186 23.8136 47.0217C28.6224 47.4715 28.7929 46.9468 32.7509 45.6856ZM15.2473 5.68586C13.2964 6.30805 9.77318 9.1641 8.97297 6.22372C12.0127 4.15664 15.5153 2.30696 19.4808 0.67466C22.1644 -0.444147 25.2247 -0.174284 28.6673 1.48237C33.122 3.13154 36.5515 3.00972 38.9559 1.11506C38.418 2.53746 37.5653 3.81931 36.4578 4.86316C42.8052 8.69746 47.0124 15.2604 47.8463 22.6273C48.6803 29.996 46.0473 37.3329 40.7193 42.4884C46.7388 30.8375 46.171 13.0078 33.3712 7.28818C31.2423 9.00855 27.9477 9.31402 23.4875 8.20646C21.0756 7.74732 20.622 8.868 19.001 8.60001C17.528 8.35451 16.3155 7.32004 17.3781 6.50295C18.0565 5.98009 18.8792 5.67087 19.8462 5.57155C21.3042 5.42537 23.0995 5.55093 24.1846 4.34779C19.3758 3.89802 19.2053 4.42276 15.2473 5.68399V5.68586ZM31.4615 37.3816C28.9616 36.5458 27.4548 34.0009 27.9252 31.4072C28.3956 28.8135 30.7007 26.9601 33.3356 27.0556C33.6317 27.0931 33.8547 27.3442 33.8547 27.6441C33.8547 27.9439 33.6317 28.1951 33.3356 28.2325C31.276 28.1238 29.4601 29.5687 29.104 31.6002C28.7479 33.6317 29.9661 35.6088 31.9394 36.2066C33.4687 36.8719 35.2546 36.4146 36.276 35.0972C37.2973 33.7797 37.2973 31.9375 36.276 30.6201C37.9907 30.1047 39.1283 28.4818 39.0327 26.6958C38.9371 24.908 37.6309 23.4181 35.8712 23.0883C37.0312 22.6629 37.7452 21.4953 37.5972 20.2678C37.4473 19.0403 36.4746 18.0789 35.2471 17.944C34.3907 19.7094 32.6497 20.875 30.6913 20.995C29.1527 21.5591 27.9515 22.7884 27.4211 24.3383C27.2262 24.5369 26.9301 24.5988 26.6734 24.4938C26.4166 24.3889 26.2461 24.1396 26.2461 23.8604C26.7933 22.6685 27.5523 21.5853 28.4874 20.6633C27.5036 20.2004 26.6471 19.507 25.9893 18.643C25.9893 18.643 26.3698 18.4107 27.1287 17.944C27.8615 19.2165 29.2464 19.9699 30.7138 19.8912C32.1812 19.8143 33.4799 18.9185 34.074 17.5748C34.8461 16.3829 34.7018 14.8162 33.7235 13.7874C32.7453 12.7566 31.1898 12.5318 29.9586 13.2402C29.7693 12.0576 28.8229 11.1393 27.6329 10.9875C26.4447 10.8339 25.2978 11.4823 24.8143 12.5786V36.9019C25.0317 38.4986 26.3379 39.7261 27.9458 39.8423C29.5538 39.9566 31.023 38.9296 31.4653 37.3798L31.4615 37.3816Z" fill="#3B72AA"/>
<path d="M9.4082 55.112L9.61247 52.3459L8.48242 54.2368C8.45431 54.2837 8.44306 54.3249 8.44868 54.3605C8.45431 54.3961 8.47679 54.4374 8.5199 54.4823L8.47679 54.5536L7.62598 54.0457L7.66908 53.9745C7.72905 53.9895 7.7759 53.9913 7.80963 53.9801C7.84337 53.967 7.87522 53.9389 7.90334 53.892L9.46254 51.2852C9.48878 51.2402 9.50003 51.199 9.4944 51.1634C9.48878 51.1278 9.46442 51.0866 9.42319 51.0416L9.46629 50.9685L10.5814 51.6357L10.5382 51.7069C10.4614 51.6844 10.4033 51.7069 10.364 51.7706C10.3452 51.8006 10.3359 51.8418 10.3321 51.8924L10.1691 53.9557L11.9044 52.8707C11.9813 52.8219 12.0281 52.7826 12.0487 52.7507C12.0862 52.6889 12.0712 52.6326 12.0056 52.5839L12.0487 52.5108L13.1432 53.1649L13.1001 53.2361C13.0401 53.2211 12.9933 53.2192 12.9595 53.2305C12.9258 53.2436 12.8939 53.2717 12.8677 53.3167L11.3085 55.9235C11.2804 55.9703 11.2691 56.0116 11.2747 56.0472C11.2804 56.0828 11.3029 56.124 11.346 56.169L11.3029 56.2402L10.3996 55.7005L10.4427 55.6293C10.5008 55.6442 10.5457 55.6461 10.5814 55.6349C10.617 55.6218 10.6488 55.5936 10.6769 55.5468L11.807 53.6559L9.4082 55.1083V55.112Z" fill="white" stroke="white" stroke-miterlimit="10"/>
<path d="M16.3288 54.741L15.6429 55.3781L15.5941 55.3144C15.6016 55.2994 15.6073 55.2863 15.611 55.2769C15.6335 55.2207 15.611 55.1439 15.5492 55.0464C15.3561 54.7353 15.0769 54.5086 14.7096 54.3624C14.5466 54.2987 14.3966 54.2631 14.2542 54.2556C14.1511 54.2518 14.0593 54.2724 13.9768 54.3155C13.8944 54.3586 13.8382 54.4186 13.8082 54.4955C13.7576 54.621 13.7951 54.7335 13.9206 54.8365C13.9843 54.889 14.1324 54.9752 14.3648 55.097L14.7096 55.2788C14.9139 55.3875 15.075 55.4906 15.1894 55.5861C15.3055 55.6817 15.3992 55.7867 15.4705 55.9047C15.5435 56.0266 15.5829 56.1634 15.5923 56.317C15.6016 56.4707 15.5754 56.6225 15.5173 56.7705C15.4236 57.0048 15.2699 57.1847 15.0563 57.3103C14.8614 57.4246 14.614 57.4677 14.3104 57.4415C14.0837 57.4208 13.855 57.3646 13.6245 57.2728C13.2104 57.1079 12.843 56.8399 12.5226 56.467C12.4532 56.3901 12.4101 56.3489 12.3933 56.3414C12.3727 56.3339 12.3352 56.3395 12.2771 56.3583L12.2246 56.2945L12.8899 55.6105L12.9424 55.6705C12.9367 55.6855 12.933 55.6948 12.9293 55.7023C12.8993 55.7754 12.9068 55.856 12.948 55.9441C13.0098 56.0771 13.1316 56.2215 13.3134 56.3714C13.4952 56.5232 13.6789 56.6356 13.8644 56.7087C14.0687 56.7893 14.2561 56.8211 14.4285 56.8062C14.5241 56.7968 14.6084 56.7687 14.6834 56.72C14.7583 56.6712 14.8089 56.6113 14.8389 56.5382C14.882 56.4276 14.8576 56.3264 14.7658 56.2346C14.7002 56.1709 14.5559 56.079 14.3292 55.9572L13.9918 55.7773C13.7651 55.6574 13.6077 55.5655 13.5177 55.5037C13.4277 55.4419 13.3453 55.365 13.2685 55.2732C13.1579 55.1439 13.0923 54.9902 13.0717 54.8122C13.0529 54.651 13.0773 54.4861 13.1448 54.3137C13.2572 54.0326 13.4409 53.8358 13.6957 53.7233C14.0312 53.5753 14.4379 53.5959 14.9157 53.7852C15.1163 53.8658 15.2943 53.9614 15.4498 54.0738C15.6054 54.1862 15.789 54.3512 16.0027 54.5704C16.0758 54.6435 16.1226 54.6829 16.1432 54.6922C16.1751 54.7053 16.2201 54.7016 16.2782 54.681L16.3288 54.7428V54.741Z" fill="white" stroke="white" stroke-miterlimit="10"/>
<path d="M22.1539 55.8822L21.6386 56.6637L21.5767 56.6131C21.5805 56.5963 21.5842 56.5813 21.5842 56.5719C21.5917 56.5138 21.5542 56.4426 21.468 56.362C21.2075 56.1071 20.8815 55.9516 20.4898 55.8972C20.3174 55.8729 20.1618 55.8748 20.0231 55.901C19.922 55.9216 19.8376 55.9628 19.7683 56.0247C19.6989 56.0865 19.6596 56.1577 19.6465 56.2383C19.6277 56.3714 19.6914 56.4726 19.8357 56.5438C19.9107 56.5794 20.0756 56.6281 20.3286 56.6918L20.7072 56.7874C20.9321 56.8455 21.112 56.9074 21.2469 56.9711C21.3818 57.0367 21.498 57.1172 21.5955 57.2128C21.6948 57.314 21.766 57.4377 21.811 57.5858C21.856 57.7338 21.8672 57.8856 21.8447 58.0449C21.8091 58.2941 21.7023 58.5059 21.5243 58.6783C21.3631 58.8357 21.1307 58.9369 20.8309 58.9819C20.606 59.0157 20.3717 59.0157 20.1243 58.9819C19.6821 58.9201 19.2623 58.7458 18.8631 58.4609C18.7788 58.4028 18.7263 58.3729 18.7094 58.371C18.6888 58.3672 18.6513 58.3822 18.6007 58.4141L18.5352 58.3654L19.0187 57.5445L19.0843 57.5914C19.0824 57.6064 19.0805 57.6176 19.0805 57.6251C19.0693 57.7038 19.0955 57.7807 19.1555 57.8556C19.2473 57.9718 19.3991 58.0805 19.6109 58.1855C19.8226 58.2885 20.0288 58.356 20.2274 58.3822C20.4448 58.4122 20.6341 58.3991 20.799 58.3429C20.889 58.311 20.9658 58.2642 21.0258 58.1986C21.0857 58.133 21.1213 58.0618 21.1326 57.9849C21.1495 57.8669 21.1007 57.775 20.9883 57.7076C20.9096 57.6607 20.7465 57.6064 20.4973 57.5408L20.1262 57.4471C19.877 57.3834 19.7027 57.3328 19.6015 57.2934C19.5003 57.2541 19.401 57.1978 19.3054 57.1285C19.1686 57.0292 19.0674 56.8961 19.0055 56.7274C18.9493 56.5756 18.9325 56.4089 18.9587 56.2271C18.9999 55.9272 19.133 55.6911 19.3541 55.5224C19.6446 55.2994 20.0438 55.2226 20.5535 55.2938C20.7671 55.3238 20.9639 55.3744 21.1401 55.4456C21.3181 55.5168 21.5355 55.6349 21.7941 55.7979C21.8841 55.8504 21.9384 55.8785 21.959 55.8822C21.9928 55.8879 22.0359 55.8729 22.0865 55.8391L22.1502 55.8879L22.1539 55.8822Z" fill="white" stroke="white" stroke-miterlimit="10"/>
<path d="M25.939 55.8391L25.9728 57.85C25.9803 58.2304 25.9184 58.5153 25.791 58.7083C25.5605 59.0531 25.0732 59.2312 24.3292 59.2443C23.7933 59.2537 23.3791 59.1693 23.0924 58.9894C22.9237 58.8863 22.8056 58.742 22.7382 58.5584C22.6726 58.3766 22.637 58.1611 22.6332 57.9081L22.5976 55.8972C22.5976 55.8429 22.5845 55.8017 22.5601 55.7736C22.5358 55.7454 22.4945 55.7248 22.4346 55.708V55.6236L23.4859 55.6049V55.6892C23.4297 55.7061 23.3885 55.7286 23.366 55.7586C23.3435 55.7885 23.3322 55.8298 23.3322 55.8841L23.3622 57.6738C23.366 57.88 23.3791 58.0337 23.4016 58.1311C23.4241 58.2304 23.4672 58.311 23.5271 58.3766C23.6883 58.5528 23.96 58.6371 24.3424 58.6315C24.7265 58.624 24.9945 58.5303 25.1501 58.3485C25.2063 58.281 25.2456 58.1967 25.2644 58.0974C25.2831 57.9981 25.2925 57.8444 25.2887 57.6382L25.2569 55.8485C25.2569 55.7942 25.2438 55.7529 25.2194 55.7248C25.1969 55.6967 25.1538 55.6761 25.0938 55.6592V55.5749L26.0852 55.558V55.6424C26.0271 55.6611 25.9859 55.6836 25.9634 55.7136C25.9409 55.7417 25.9297 55.7829 25.9315 55.8373L25.939 55.8391Z" fill="white" stroke="white" stroke-miterlimit="10"/>
<path d="M27.6727 57.4827L27.8676 58.6502C27.8769 58.7027 27.8957 58.7402 27.9238 58.7645C27.9519 58.7889 27.9969 58.8039 28.055 58.8114L28.0681 58.8938L27.0299 59.0663L27.0167 58.9838C27.073 58.9576 27.1086 58.9276 27.1273 58.8957C27.146 58.8639 27.1498 58.8226 27.1423 58.7702L26.6419 55.7736C26.6326 55.7192 26.6157 55.6817 26.5876 55.6574C26.5595 55.633 26.5164 55.618 26.4545 55.6105L26.4414 55.5281L28.5179 55.1814C28.7596 55.1401 28.9545 55.127 29.1026 55.1364C29.2506 55.1476 29.3855 55.1851 29.5092 55.2526C29.6367 55.3219 29.7435 55.4231 29.8297 55.5562C29.9178 55.6948 29.9759 55.8466 30.004 56.0116C30.0433 56.2496 30.019 56.4688 29.929 56.6694C29.8503 56.8399 29.7304 56.9729 29.5711 57.0667C29.4099 57.1604 29.1756 57.2316 28.8702 57.284L27.6764 57.4827H27.6727ZM27.5752 56.8999L28.6846 56.7143C28.9058 56.6768 29.0557 56.6262 29.1382 56.5607C29.1888 56.5176 29.2262 56.4576 29.2487 56.3807C29.2712 56.3039 29.2768 56.2215 29.2618 56.1352C29.2469 56.0509 29.2169 55.976 29.17 55.9085C29.1232 55.8429 29.0688 55.7979 29.0051 55.7754C28.9095 55.7398 28.7502 55.7398 28.5272 55.7773L27.4178 55.9628L27.5733 56.898L27.5752 56.8999Z" fill="white" stroke="white" stroke-miterlimit="10"/>
<path d="M31.5758 56.6394L31.9431 57.7638C31.96 57.8144 31.9825 57.8481 32.0144 57.8687C32.0462 57.8894 32.0912 57.8969 32.1512 57.895L32.1774 57.9756L31.1767 58.3016L31.1504 58.2211C31.201 58.1855 31.2329 58.1517 31.246 58.118C31.2591 58.0843 31.2572 58.043 31.2423 57.9924L30.2996 55.1045C30.2827 55.052 30.2584 55.0183 30.2284 54.9977C30.1984 54.979 30.1516 54.9696 30.0897 54.9715L30.0635 54.8909L32.065 54.2368C32.2973 54.16 32.4885 54.1169 32.6365 54.1056C32.7846 54.0944 32.9233 54.1131 33.0563 54.16C33.1913 54.2106 33.3131 54.2931 33.4199 54.4111C33.5286 54.5348 33.6073 54.6754 33.6598 54.8365C33.7347 55.067 33.7422 55.2863 33.6841 55.4981C33.6317 55.6799 33.5342 55.8279 33.3899 55.9441C33.2456 56.0603 33.0245 56.1671 32.7284 56.2646L31.5777 56.6412L31.5758 56.6394ZM31.3922 56.0772L32.4604 55.7286C32.674 55.6592 32.8146 55.5862 32.8858 55.5093C32.9308 55.4606 32.9589 55.395 32.9701 55.3144C32.9814 55.2338 32.9739 55.1532 32.9458 55.0689C32.9195 54.9883 32.8783 54.9171 32.8221 54.859C32.7659 54.8009 32.7059 54.7653 32.6403 54.7503C32.5391 54.7297 32.3817 54.7541 32.168 54.8234L31.0998 55.172L31.3941 56.0734L31.3922 56.0772Z" fill="white" stroke="white" stroke-miterlimit="10"/>
<path d="M35.1764 52.835C35.7011 52.5671 36.1922 52.5052 36.6532 52.6495C37.1385 52.7994 37.5096 53.1236 37.7645 53.6221C37.92 53.9276 37.9894 54.2537 37.9687 54.5985C37.9294 55.2713 37.564 55.7848 36.8706 56.139C36.3514 56.4051 35.8604 56.4651 35.3994 56.3208C35.1521 56.2439 34.929 56.1146 34.7304 55.9347C34.5542 55.7754 34.4099 55.5861 34.2994 55.3669C34.1363 55.0464 34.0632 54.7147 34.082 54.3718C34.1176 53.714 34.483 53.2024 35.1764 52.835ZM35.4556 53.3766C35.1689 53.5228 34.9778 53.7346 34.8784 54.0138C34.7623 54.3437 34.7922 54.681 34.9684 55.0258C35.1446 55.3706 35.4013 55.5936 35.7368 55.6911C36.0197 55.7736 36.3065 55.7417 36.5951 55.5936C36.8837 55.4456 37.0767 55.2338 37.1742 54.9565C37.2322 54.7916 37.251 54.6154 37.2322 54.428C37.2135 54.2631 37.1667 54.1057 37.0917 53.9576C36.9062 53.5959 36.6475 53.3691 36.3158 53.2773C36.0329 53.1986 35.7461 53.2305 35.4556 53.3748V53.3766Z" fill="white" stroke="white" stroke-miterlimit="10"/>
<path d="M39.1815 53.0112L39.8805 53.9745C39.9123 54.0176 39.9442 54.0438 39.9817 54.0532C40.0173 54.0625 40.0641 54.0569 40.1204 54.0363L40.1691 54.1038L39.3183 54.7222L39.2695 54.6547C39.307 54.606 39.3276 54.5629 39.3295 54.5273C39.3314 54.4917 39.3183 54.4523 39.2864 54.4092L37.5004 51.9505C37.4686 51.9074 37.4348 51.8793 37.3992 51.8718C37.3636 51.8643 37.3168 51.868 37.2587 51.8886L37.21 51.8212L38.9172 50.5806C39.1252 50.4288 39.2995 50.3219 39.4401 50.2601C39.5806 50.1964 39.7193 50.1645 39.8561 50.1627C40.0154 50.1608 40.1653 50.202 40.3096 50.292C40.4483 50.3782 40.5664 50.4906 40.6676 50.6293C41.0124 51.1034 40.9656 51.5588 40.5308 51.9992L41.6421 52.4171C41.837 52.4902 41.9719 52.5296 42.0431 52.5389C42.1143 52.5483 42.1856 52.5314 42.2511 52.4902L42.2999 52.5577L41.3141 53.2736L41.2654 53.2061C41.3254 53.1461 41.3404 53.0955 41.3123 53.0562C41.2935 53.0299 41.2185 52.9925 41.0836 52.94L39.9105 52.4865L39.1815 53.015V53.0112ZM38.8348 52.5333L39.7549 51.8662C39.8917 51.7668 39.9836 51.6937 40.0342 51.645C40.0847 51.5963 40.1222 51.542 40.1503 51.4801C40.2103 51.3489 40.1841 51.2065 40.0735 51.0547C39.9629 50.9029 39.8374 50.8354 39.6931 50.8504C39.6237 50.8579 39.56 50.8767 39.5 50.9067C39.4401 50.9366 39.3408 51.0041 39.2021 51.1053L38.2819 51.7725L38.8348 52.5333Z" fill="white" stroke="white" stroke-miterlimit="10"/>
<path d="M42.0652 48.6484L43.9467 50.6124C43.9842 50.6518 44.0217 50.6743 44.0573 50.678C44.0929 50.6818 44.1379 50.6705 44.1941 50.6424L44.2522 50.7024L43.4932 51.4314L43.4351 51.3714C43.4651 51.3171 43.4801 51.2721 43.4764 51.2365C43.4726 51.2009 43.4539 51.1634 43.4164 51.124L41.5348 49.16L40.7777 49.8853C40.7421 49.919 40.7234 49.9546 40.7215 49.9902C40.7196 50.0258 40.7346 50.0727 40.7665 50.1308L40.7103 50.1851L40.0693 49.5142L40.1256 49.4599C40.1837 49.4936 40.2286 49.5105 40.2642 49.5105C40.2998 49.5105 40.3355 49.4936 40.3711 49.458L42.4138 47.5015C42.4513 47.4659 42.47 47.4303 42.4719 47.3947C42.4737 47.3591 42.4587 47.3122 42.4269 47.2541L42.4831 47.1998L43.1259 47.8707L43.0697 47.925C43.0135 47.8894 42.9685 47.8726 42.931 47.8744C42.8935 47.8763 42.8598 47.8932 42.8223 47.9288L42.0671 48.6522L42.0652 48.6484Z" fill="white" stroke="white" stroke-miterlimit="10"/>
</g>
<path d="M78.675 21.964V37.669H75.525V27.454L71.3175 37.669H68.9325L64.7025 27.454V37.669H61.5525V21.964H65.13L70.125 33.6415L75.12 21.964H78.675ZM87.2118 37.8265C86.1168 37.8265 85.1268 37.639 84.2418 37.264C83.3718 36.889 82.6818 36.349 82.1718 35.644C81.6618 34.939 81.3993 34.1065 81.3843 33.1465H84.7593C84.8043 33.7915 85.0293 34.3015 85.4343 34.6765C85.8543 35.0515 86.4243 35.239 87.1443 35.239C87.8793 35.239 88.4568 35.0665 88.8768 34.7215C89.2968 34.3615 89.5068 33.8965 89.5068 33.3265C89.5068 32.8615 89.3643 32.479 89.0793 32.179C88.7943 31.879 88.4343 31.6465 87.9993 31.4815C87.5793 31.3015 86.9943 31.1065 86.2443 30.8965C85.2243 30.5965 84.3918 30.304 83.7468 30.019C83.1168 29.719 82.5693 29.2765 82.1043 28.6915C81.6543 28.0915 81.4293 27.2965 81.4293 26.3065C81.4293 25.3765 81.6618 24.5665 82.1268 23.8765C82.5918 23.1865 83.2443 22.6615 84.0843 22.3015C84.9243 21.9265 85.8843 21.739 86.9643 21.739C88.5843 21.739 89.8968 22.1365 90.9018 22.9315C91.9218 23.7115 92.4843 24.8065 92.5893 26.2165H89.1243C89.0943 25.6765 88.8618 25.234 88.4268 24.889C88.0068 24.529 87.4443 24.349 86.7393 24.349C86.1243 24.349 85.6293 24.5065 85.2543 24.8215C84.8943 25.1365 84.7143 25.594 84.7143 26.194C84.7143 26.614 84.8493 26.9665 85.1193 27.2515C85.4043 27.5215 85.7493 27.7465 86.1543 27.9265C86.5743 28.0915 87.1593 28.2865 87.9093 28.5115C88.9293 28.8115 89.7618 29.1115 90.4068 29.4115C91.0518 29.7115 91.6068 30.1615 92.0718 30.7615C92.5368 31.3615 92.7693 32.149 92.7693 33.124C92.7693 33.964 92.5518 34.744 92.1168 35.464C91.6818 36.184 91.0443 36.7615 90.2043 37.1965C89.3643 37.6165 88.3668 37.8265 87.2118 37.8265ZM106.284 37.8265C105.189 37.8265 104.199 37.639 103.314 37.264C102.444 36.889 101.754 36.349 101.244 35.644C100.734 34.939 100.472 34.1065 100.457 33.1465H103.832C103.877 33.7915 104.102 34.3015 104.507 34.6765C104.927 35.0515 105.497 35.239 106.217 35.239C106.952 35.239 107.529 35.0665 107.949 34.7215C108.369 34.3615 108.579 33.8965 108.579 33.3265C108.579 32.8615 108.437 32.479 108.152 32.179C107.867 31.879 107.507 31.6465 107.072 31.4815C106.652 31.3015 106.067 31.1065 105.317 30.8965C104.297 30.5965 103.464 30.304 102.819 30.019C102.189 29.719 101.642 29.2765 101.177 28.6915C100.727 28.0915 100.502 27.2965 100.502 26.3065C100.502 25.3765 100.734 24.5665 101.199 23.8765C101.664 23.1865 102.317 22.6615 103.157 22.3015C103.997 21.9265 104.957 21.739 106.037 21.739C107.657 21.739 108.969 22.1365 109.974 22.9315C110.994 23.7115 111.557 24.8065 111.662 26.2165H108.197C108.167 25.6765 107.934 25.234 107.499 24.889C107.079 24.529 106.517 24.349 105.812 24.349C105.197 24.349 104.702 24.5065 104.327 24.8215C103.967 25.1365 103.787 25.594 103.787 26.194C103.787 26.614 103.922 26.9665 104.192 27.2515C104.477 27.5215 104.822 27.7465 105.227 27.9265C105.647 28.0915 106.232 28.2865 106.982 28.5115C108.002 28.8115 108.834 29.1115 109.479 29.4115C110.124 29.7115 110.679 30.1615 111.144 30.7615C111.609 31.3615 111.842 32.149 111.842 33.124C111.842 33.964 111.624 34.744 111.189 35.464C110.754 36.184 110.117 36.7615 109.277 37.1965C108.437 37.6165 107.439 37.8265 106.284 37.8265ZM117.678 21.964V31.684C117.678 32.749 117.955 33.5665 118.51 34.1365C119.065 34.6915 119.845 34.969 120.85 34.969C121.87 34.969 122.658 34.6915 123.213 34.1365C123.768 33.5665 124.045 32.749 124.045 31.684V21.964H127.218V31.6615C127.218 32.9965 126.925 34.129 126.34 35.059C125.77 35.974 124.998 36.664 124.023 37.129C123.063 37.594 121.99 37.8265 120.805 37.8265C119.635 37.8265 118.57 37.594 117.61 37.129C116.665 36.664 115.915 35.974 115.36 35.059C114.805 34.129 114.528 32.9965 114.528 31.6615V21.964H117.678ZM141.713 26.824C141.713 27.664 141.511 28.4515 141.106 29.1865C140.716 29.9215 140.093 30.514 139.238 30.964C138.398 31.414 137.333 31.639 136.043 31.639H133.411V37.669H130.261V21.964H136.043C137.258 21.964 138.293 22.174 139.148 22.594C140.003 23.014 140.641 23.5915 141.061 24.3265C141.496 25.0615 141.713 25.894 141.713 26.824ZM135.908 29.0965C136.778 29.0965 137.423 28.9015 137.843 28.5115C138.263 28.1065 138.473 27.544 138.473 26.824C138.473 25.294 137.618 24.529 135.908 24.529H133.411V29.0965H135.908ZM155.402 26.824C155.402 27.664 155.2 28.4515 154.795 29.1865C154.405 29.9215 153.782 30.514 152.927 30.964C152.087 31.414 151.022 31.639 149.732 31.639H147.1V37.669H143.95V21.964H149.732C150.947 21.964 151.982 22.174 152.837 22.594C153.692 23.014 154.33 23.5915 154.75 24.3265C155.185 25.0615 155.402 25.894 155.402 26.824ZM149.597 29.0965C150.467 29.0965 151.112 28.9015 151.532 28.5115C151.952 28.1065 152.162 27.544 152.162 26.824C152.162 25.294 151.307 24.529 149.597 24.529H147.1V29.0965H149.597ZM164.929 37.8265C163.459 37.8265 162.109 37.4815 160.879 36.7915C159.649 36.1015 158.674 35.149 157.954 33.934C157.234 32.704 156.874 31.3165 156.874 29.7715C156.874 28.2415 157.234 26.869 157.954 25.654C158.674 24.424 159.649 23.464 160.879 22.774C162.109 22.084 163.459 21.739 164.929 21.739C166.414 21.739 167.764 22.084 168.979 22.774C170.209 23.464 171.176 24.424 171.881 25.654C172.601 26.869 172.961 28.2415 172.961 29.7715C172.961 31.3165 172.601 32.704 171.881 33.934C171.176 35.149 170.209 36.1015 168.979 36.7915C167.749 37.4815 166.399 37.8265 164.929 37.8265ZM164.929 35.014C165.874 35.014 166.706 34.804 167.426 34.384C168.146 33.949 168.709 33.334 169.114 32.539C169.519 31.744 169.721 30.8215 169.721 29.7715C169.721 28.7215 169.519 27.8065 169.114 27.0265C168.709 26.2315 168.146 25.624 167.426 25.204C166.706 24.784 165.874 24.574 164.929 24.574C163.984 24.574 163.144 24.784 162.409 25.204C161.689 25.624 161.126 26.2315 160.721 27.0265C160.316 27.8065 160.114 28.7215 160.114 29.7715C160.114 30.8215 160.316 31.744 160.721 32.539C161.126 33.334 161.689 33.949 162.409 34.384C163.144 34.804 163.984 35.014 164.929 35.014ZM183.405 37.669L179.94 31.549H178.455V37.669H175.305V21.964H181.2C182.415 21.964 183.45 22.1815 184.305 22.6165C185.16 23.0365 185.797 23.614 186.217 24.349C186.652 25.069 186.87 25.879 186.87 26.779C186.87 27.814 186.57 28.7515 185.97 29.5915C185.37 30.4165 184.477 30.9865 183.292 31.3015L187.05 37.669H183.405ZM178.455 29.1865H181.087C181.942 29.1865 182.58 28.984 183 28.579C183.42 28.159 183.63 27.5815 183.63 26.8465C183.63 26.1265 183.42 25.5715 183 25.1815C182.58 24.7765 181.942 24.574 181.087 24.574H178.455V29.1865ZM200.407 21.964V24.5065H196.222V37.669H193.072V24.5065H188.887V21.964H200.407Z" fill="#3B72AA"/>
<defs>
<clipPath id="clip0_0_1">
<rect width="48" height="59.338" fill="white"/>
</clipPath>
</defs>
</svg>
