<svg width="201" height="60" viewBox="0 0 201 60" fill="none" xmlns="http://www.w3.org/2000/svg">
<path d="M9.40722 55.1135L9.61149 52.3474L8.48144 54.2383C8.45333 54.2852 8.44209 54.3264 8.44771 54.362C8.45333 54.3976 8.47582 54.4388 8.51892 54.4838L8.47582 54.555L7.625 54.0472L7.6681 53.9759C7.72807 53.9909 7.77492 53.9928 7.80866 53.9816C7.84239 53.9684 7.87425 53.9403 7.90236 53.8935L9.46157 51.2867C9.4878 51.2417 9.49905 51.2005 9.49343 51.1649C9.4878 51.1293 9.46344 51.088 9.42221 51.0431L9.46532 50.97L10.5804 51.6371L10.5373 51.7083C10.4604 51.6859 10.4023 51.7083 10.363 51.7721C10.3442 51.802 10.3349 51.8433 10.3311 51.8939L10.1681 53.9572L11.9035 52.8721C11.9803 52.8234 12.0271 52.7841 12.0478 52.7522C12.0852 52.6903 12.0702 52.6341 12.0047 52.5854L12.0478 52.5123L13.1422 53.1664L13.0991 53.2376C13.0391 53.2226 12.9923 53.2207 12.9585 53.2319C12.9248 53.2451 12.893 53.2732 12.8667 53.3182L11.3075 55.925C11.2794 55.9718 11.2682 56.013 11.2738 56.0486C11.2794 56.0842 11.3019 56.1255 11.345 56.1705L11.3019 56.2417L10.3986 55.7019L10.4417 55.6307C10.4998 55.6457 10.5448 55.6476 10.5804 55.6364C10.616 55.6232 10.6478 55.5951 10.676 55.5483L11.806 53.6574L9.40722 55.1097V55.1135Z" fill="white" stroke="white" stroke-miterlimit="10"/>
<path d="M16.3278 54.7424L15.6419 55.3796L15.5932 55.3159C15.6007 55.3009 15.6063 55.2877 15.61 55.2784C15.6325 55.2221 15.61 55.1453 15.5482 55.0479C15.3552 54.7368 15.0759 54.51 14.7086 54.3638C14.5456 54.3001 14.3957 54.2645 14.2532 54.257C14.1502 54.2533 14.0583 54.2739 13.9759 54.317C13.8934 54.3601 13.8372 54.4201 13.8072 54.4969C13.7566 54.6225 13.7941 54.7349 13.9196 54.838C13.9834 54.8904 14.1314 54.9766 14.3638 55.0985L14.7086 55.2802C14.9129 55.3889 15.0741 55.492 15.1884 55.5876C15.3046 55.6832 15.3983 55.7881 15.4695 55.9062C15.5426 56.028 15.5819 56.1648 15.5913 56.3185C15.6007 56.4721 15.5744 56.6239 15.5163 56.772C15.4226 57.0062 15.269 57.1862 15.0553 57.3117C14.8604 57.426 14.613 57.4691 14.3094 57.4429C14.0827 57.4223 13.8541 57.3661 13.6235 57.2742C13.2094 57.1093 12.8421 56.8413 12.5216 56.4684C12.4523 56.3916 12.4092 56.3503 12.3923 56.3428C12.3717 56.3353 12.3342 56.341 12.2761 56.3597L12.2236 56.296L12.8889 55.6119L12.9414 55.6719C12.9358 55.6869 12.932 55.6963 12.9283 55.7038C12.8983 55.7769 12.9058 55.8574 12.947 55.9455C13.0089 56.0786 13.1307 56.2229 13.3125 56.3728C13.4942 56.5246 13.6779 56.6371 13.8634 56.7101C14.0677 56.7907 14.2551 56.8226 14.4275 56.8076C14.5231 56.7982 14.6074 56.7701 14.6824 56.7214C14.7573 56.6727 14.8079 56.6127 14.8379 56.5396C14.881 56.429 14.8567 56.3278 14.7648 56.236C14.6993 56.1723 14.5549 56.0805 14.3282 55.9586L13.9909 55.7787C13.7641 55.6588 13.6067 55.567 13.5167 55.5051C13.4268 55.4433 13.3443 55.3665 13.2675 55.2746C13.1569 55.1453 13.0913 54.9916 13.0707 54.8136C13.052 54.6524 13.0763 54.4875 13.1438 54.3151C13.2562 54.034 13.4399 53.8372 13.6948 53.7248C14.0302 53.5767 14.4369 53.5973 14.9148 53.7866C15.1153 53.8672 15.2933 53.9628 15.4489 54.0752C15.6044 54.1877 15.7881 54.3526 16.0017 54.5719C16.0748 54.6449 16.1217 54.6843 16.1423 54.6937C16.1741 54.7068 16.2191 54.703 16.2772 54.6824L16.3278 54.7443V54.7424Z" fill="white" stroke="white" stroke-miterlimit="10"/>
<path d="M22.153 55.8837L21.6376 56.6652L21.5758 56.6146C21.5795 56.5977 21.5833 56.5827 21.5833 56.5734C21.5908 56.5153 21.5533 56.444 21.4671 56.3635C21.2066 56.1086 20.8805 55.953 20.4888 55.8987C20.3164 55.8743 20.1609 55.8762 20.0222 55.9024C19.921 55.9231 19.8366 55.9643 19.7673 56.0261C19.698 56.088 19.6586 56.1592 19.6455 56.2398C19.6267 56.3728 19.6905 56.474 19.8348 56.5452C19.9097 56.5808 20.0746 56.6296 20.3276 56.6933L20.7062 56.7889C20.9311 56.847 21.111 56.9088 21.2459 56.9725C21.3809 57.0381 21.4971 57.1187 21.5945 57.2143C21.6938 57.3155 21.765 57.4392 21.81 57.5872C21.855 57.7353 21.8662 57.8871 21.8437 58.0464C21.8081 58.2956 21.7013 58.5074 21.5233 58.6798C21.3621 58.8372 21.1297 58.9384 20.8299 58.9834C20.605 59.0171 20.3707 59.0171 20.1234 58.9834C19.6811 58.9215 19.2613 58.7473 18.8621 58.4624C18.7778 58.4043 18.7253 58.3743 18.7085 58.3724C18.6879 58.3687 18.6504 58.3837 18.5998 58.4155L18.5342 58.3668L19.0177 57.546L19.0833 57.5928C19.0814 57.6078 19.0795 57.6191 19.0795 57.6266C19.0683 57.7053 19.0945 57.7821 19.1545 57.8571C19.2463 57.9733 19.3981 58.082 19.6099 58.1869C19.8217 58.29 20.0278 58.3574 20.2264 58.3837C20.4438 58.4137 20.6331 58.4006 20.798 58.3443C20.888 58.3125 20.9648 58.2656 21.0248 58.2C21.0848 58.1344 21.1204 58.0632 21.1316 57.9864C21.1485 57.8683 21.0998 57.7765 20.9873 57.709C20.9086 57.6622 20.7456 57.6078 20.4963 57.5422L20.1252 57.4485C19.876 57.3848 19.7017 57.3342 19.6005 57.2949C19.4993 57.2555 19.4 57.1993 19.3044 57.1299C19.1676 57.0306 19.0664 56.8976 19.0046 56.7289C18.9483 56.5771 18.9315 56.4103 18.9577 56.2285C18.9989 55.9287 19.132 55.6925 19.3531 55.5239C19.6436 55.3009 20.0428 55.224 20.5525 55.2952C20.7662 55.3252 20.9629 55.3758 21.1391 55.447C21.3171 55.5183 21.5345 55.6363 21.7931 55.7994C21.8831 55.8518 21.9375 55.88 21.9581 55.8837C21.9918 55.8893 22.0349 55.8743 22.0855 55.8406L22.1492 55.8893L22.153 55.8837Z" fill="white" stroke="white" stroke-miterlimit="10"/>
<path d="M25.9381 55.8407L25.9718 57.8515C25.9793 58.232 25.9174 58.5168 25.79 58.7098C25.5595 59.0547 25.0723 59.2327 24.3283 59.2458C23.7923 59.2552 23.3781 59.1709 23.0914 58.991C22.9227 58.8879 22.8047 58.7436 22.7372 58.5599C22.6716 58.3781 22.636 58.1626 22.6322 57.9096L22.5966 55.8988C22.5966 55.8444 22.5835 55.8032 22.5592 55.7751C22.5348 55.747 22.4936 55.7264 22.4336 55.7095V55.6252L23.4849 55.6064V55.6908C23.4287 55.7076 23.3875 55.7301 23.365 55.7601C23.3425 55.7901 23.3313 55.8313 23.3313 55.8857L23.3612 57.6754C23.365 57.8815 23.3781 58.0352 23.4006 58.1326C23.4231 58.232 23.4662 58.3125 23.5262 58.3781C23.6873 58.5543 23.9591 58.6386 24.3414 58.633C24.7256 58.6255 24.9935 58.5318 25.1491 58.35C25.2053 58.2826 25.2447 58.1982 25.2634 58.0989C25.2821 57.9996 25.2915 57.8459 25.2878 57.6398L25.2559 55.8501C25.2559 55.7957 25.2428 55.7545 25.2184 55.7264C25.1959 55.6983 25.1528 55.6776 25.0929 55.6608V55.5764L26.0842 55.5596V55.6439C26.0261 55.6626 25.9849 55.6851 25.9624 55.7151C25.9399 55.7432 25.9287 55.7845 25.9306 55.8388L25.9381 55.8407Z" fill="white" stroke="white" stroke-miterlimit="10"/>
<path fill-rule="evenodd" clip-rule="evenodd" d="M16.5066 37.385C16.9489 38.9349 18.4182 39.9618 20.0261 39.8475C21.634 39.7313 22.9421 38.5057 23.1576 36.9071V12.582C22.6741 11.4857 21.5272 10.8373 20.3391 10.9909C19.1509 11.1427 18.2045 12.061 18.0134 13.2435C16.7821 12.5351 15.2267 12.76 14.2484 13.7908C13.2702 14.8215 13.1259 16.3863 13.898 17.5782C14.492 18.9219 15.7908 19.8158 17.2563 19.8945C18.7218 19.9714 20.1086 19.2199 20.8413 17.9474C21.6003 18.4122 21.9807 18.6464 21.9807 18.6464C21.3211 19.5103 20.4646 20.2037 19.4826 20.6666C20.4178 21.5868 21.1786 22.67 21.724 23.8638C21.724 24.143 21.5535 24.3922 21.2967 24.4972C21.0381 24.6021 20.7439 24.5403 20.549 24.3416C20.0186 22.7918 18.8173 21.5624 17.2787 20.9983C15.3204 20.8803 13.5775 19.7146 12.7229 17.9474C11.4954 18.0823 10.5209 19.0456 10.3729 20.2712C10.2248 21.4968 10.9388 22.6662 12.0989 23.0917C10.3391 23.4215 9.03293 24.9114 8.93736 26.6992C8.84178 28.487 9.9812 30.1081 11.6941 30.6235C10.6709 31.9409 10.6709 33.7831 11.6941 35.1006C12.7173 36.418 14.5014 36.8753 16.0306 36.21C18.004 35.6122 19.2221 33.635 18.8661 31.6036C18.51 29.5721 16.694 28.1272 14.6345 28.2359C14.3384 28.1984 14.1154 27.9473 14.1154 27.6475C14.1154 27.3476 14.3384 27.0965 14.6345 27.059C17.2675 26.9634 19.5745 28.815 20.0448 31.4106C20.5152 34.0042 19.0085 36.5492 16.5085 37.385H16.5066ZM32.7509 45.6871C34.7018 45.0649 38.225 42.2088 39.0252 45.1492C35.9855 47.2163 32.4829 49.0641 28.5155 50.6964C25.8338 51.8152 22.7716 51.5453 19.329 49.8868C14.8743 48.2376 11.4448 48.3594 9.04043 50.2541C9.57828 48.8317 10.431 47.5499 11.5385 46.506C5.19488 42.6736 0.985772 36.1107 0.15182 28.7438C-0.682131 21.375 1.95091 14.0381 7.27883 8.88262C1.25938 20.5336 1.82722 38.3633 14.6288 44.0829C16.7578 42.3625 20.0523 42.0551 24.5126 43.1646C26.9263 43.6237 27.3799 42.503 28.999 42.771C30.472 43.0165 31.6846 44.051 30.622 44.8681C29.9436 45.391 29.119 45.7002 28.152 45.7995C26.694 45.9475 24.8986 45.8201 23.8136 47.0232C28.6224 47.473 28.7929 46.9483 32.7509 45.6871ZM15.2473 5.68737C13.2964 6.30955 9.77318 9.1656 8.97297 6.22522C12.0127 4.15814 15.5153 2.30846 19.4808 0.676163C22.1644 -0.442644 25.2247 -0.172781 28.6673 1.48388C33.122 3.13304 36.5515 3.01123 38.9559 1.11656C38.418 2.53897 37.5653 3.82082 36.4578 4.86466C42.8052 8.69896 47.0124 15.2619 47.8463 22.6288C48.6803 29.9975 46.0473 37.3344 40.7193 42.4899C46.7388 30.839 46.171 13.0093 33.3712 7.28968C31.2423 9.01006 27.9477 9.31553 23.4875 8.20796C21.0756 7.74882 20.622 8.8695 19.001 8.60151C17.528 8.35601 16.3155 7.32154 17.3781 6.50445C18.0565 5.98159 18.8792 5.67238 19.8462 5.57305C21.3042 5.42687 23.0995 5.55244 24.1846 4.3493C19.3758 3.89953 19.2053 4.42426 15.2473 5.68549V5.68737ZM31.4615 37.3831C28.9616 36.5473 27.4548 34.0024 27.9252 31.4087C28.3956 28.815 30.7007 26.9616 33.3356 27.0571C33.6317 27.0946 33.8547 27.3457 33.8547 27.6456C33.8547 27.9454 33.6317 28.1966 33.3356 28.234C31.276 28.1253 29.4601 29.5702 29.104 31.6017C28.7479 33.6332 29.9661 35.6103 31.9394 36.2081C33.4686 36.8734 35.2546 36.4161 36.276 35.0987C37.2973 33.7812 37.2973 31.939 36.276 30.6216C37.9907 30.1062 39.1283 28.4833 39.0327 26.6973C38.9371 24.9095 37.6309 23.4196 35.8712 23.0898C37.0312 22.6644 37.7452 21.4968 37.5972 20.2693C37.4473 19.0418 36.4746 18.0804 35.2471 17.9455C34.3907 19.7109 32.6497 20.8765 30.6913 20.9965C29.1527 21.5606 27.9515 22.7899 27.4211 24.3398C27.2262 24.5384 26.9301 24.6003 26.6734 24.4953C26.4166 24.3904 26.2461 24.1411 26.2461 23.8619C26.7933 22.67 27.5523 21.5868 28.4874 20.6648C27.5036 20.2019 26.6471 19.5085 25.9893 18.6445C25.9893 18.6445 26.3698 18.4122 27.1287 17.9455C27.8615 19.218 29.2464 19.9714 30.7138 19.8927C32.1812 19.8158 33.4799 18.92 34.074 17.5763C34.8461 16.3844 34.7018 14.8177 33.7235 13.7889C32.7453 12.7582 31.1898 12.5333 29.9586 13.2417C29.7693 12.0591 28.8229 11.1408 27.6329 10.9891C26.4447 10.8354 25.2978 11.4838 24.8143 12.5801V36.9034C25.0317 38.5001 26.3379 39.7276 27.9458 39.8438C29.5538 39.9581 31.023 38.9311 31.4653 37.3813L31.4615 37.3831Z" fill="white"/>
<path d="M27.6727 57.484L27.8676 58.6515C27.8769 58.704 27.8957 58.7414 27.9238 58.7658C27.9519 58.7902 27.9969 58.8052 28.055 58.8127L28.0681 58.8951L27.0299 59.0675L27.0167 58.9851C27.073 58.9588 27.1086 58.9288 27.1273 58.897C27.146 58.8651 27.1498 58.8239 27.1423 58.7714L26.6419 55.7748C26.6326 55.7205 26.6157 55.683 26.5876 55.6586C26.5595 55.6343 26.5164 55.6193 26.4545 55.6118L26.4414 55.5293L28.5179 55.1826C28.7596 55.1414 28.9545 55.1283 29.1026 55.1376C29.2506 55.1489 29.3855 55.1864 29.5092 55.2538C29.6367 55.3232 29.7435 55.4244 29.8297 55.5574C29.9178 55.6961 29.9759 55.8479 30.004 56.0128C30.0433 56.2508 30.019 56.4701 29.929 56.6706C29.8503 56.8412 29.7304 56.9742 29.5711 57.0679C29.4099 57.1616 29.1756 57.2328 28.8702 57.2853L27.6764 57.484H27.6727ZM27.5752 56.9011L28.6846 56.7156C28.9058 56.6781 29.0557 56.6275 29.1382 56.5619C29.1888 56.5188 29.2262 56.4589 29.2487 56.382C29.2712 56.3052 29.2768 56.2227 29.2618 56.1365C29.2469 56.0522 29.2169 55.9772 29.17 55.9098C29.1232 55.8442 29.0688 55.7992 29.0051 55.7767C28.9095 55.7411 28.7502 55.7411 28.5272 55.7786L27.4178 55.9641L27.5733 56.8992L27.5752 56.9011Z" fill="white" stroke="white" stroke-miterlimit="10"/>
<path d="M31.5758 56.6407L31.9431 57.7651C31.96 57.8157 31.9825 57.8494 32.0144 57.87C32.0462 57.8906 32.0912 57.8981 32.1512 57.8963L32.1774 57.9768L31.1767 58.3029L31.1504 58.2223C31.201 58.1867 31.2329 58.153 31.246 58.1193C31.2591 58.0855 31.2572 58.0443 31.2423 57.9937L30.2996 55.1058C30.2827 55.0533 30.2584 55.0196 30.2284 54.999C30.1984 54.9802 30.1516 54.9709 30.0897 54.9727L30.0635 54.8922L32.065 54.2381C32.2973 54.1613 32.4885 54.1182 32.6365 54.1069C32.7846 54.0957 32.9233 54.1144 33.0563 54.1613C33.1913 54.2119 33.3131 54.2943 33.4199 54.4124C33.5286 54.5361 33.6073 54.6766 33.6598 54.8378C33.7347 55.0683 33.7422 55.2876 33.6841 55.4994C33.6317 55.6811 33.5342 55.8292 33.3899 55.9454C33.2456 56.0616 33.0245 56.1684 32.7284 56.2658L31.5777 56.6425L31.5758 56.6407ZM31.3922 56.0784L32.4604 55.7299C32.674 55.6605 32.8146 55.5874 32.8858 55.5106C32.9308 55.4619 32.9589 55.3963 32.9701 55.3157C32.9814 55.2351 32.9739 55.1545 32.9458 55.0702C32.9195 54.9896 32.8783 54.9184 32.8221 54.8603C32.7659 54.8022 32.7059 54.7666 32.6403 54.7516C32.5391 54.731 32.3817 54.7554 32.168 54.8247L31.0998 55.1733L31.3941 56.0747L31.3922 56.0784Z" fill="white" stroke="white" stroke-miterlimit="10"/>
<path d="M35.1754 52.8365C35.7002 52.5685 36.1912 52.5067 36.6522 52.651C37.1376 52.8009 37.5086 53.1251 37.7635 53.6236C37.919 53.9291 37.9884 54.2551 37.9678 54.6C37.9284 55.2727 37.563 55.7862 36.8696 56.1404C36.3505 56.4065 35.8595 56.4665 35.3985 56.3222C35.1511 56.2454 34.9281 56.1161 34.7294 55.9362C34.5533 55.7769 34.409 55.5876 34.2984 55.3683C34.1353 55.0479 34.0623 54.7162 34.081 54.3732C34.1166 53.7154 34.482 53.2038 35.1754 52.8365ZM35.4547 53.3781C35.1679 53.5243 34.9768 53.736 34.8775 54.0153C34.7613 54.3451 34.7913 54.6824 34.9674 55.0272C35.1436 55.3721 35.4003 55.5951 35.7358 55.6925C36.0188 55.775 36.3055 55.7431 36.5941 55.5951C36.8827 55.447 37.0757 55.2353 37.1732 54.9579C37.2313 54.793 37.25 54.6168 37.2313 54.4294C37.2125 54.2645 37.1657 54.1071 37.0907 53.959C36.9052 53.5974 36.6466 53.3706 36.3149 53.2788C36.0319 53.2001 35.7452 53.2319 35.4547 53.3762V53.3781Z" fill="white" stroke="white" stroke-miterlimit="10"/>
<path d="M39.1805 53.0127L39.8795 53.9759C39.9114 54.019 39.9432 54.0453 39.9807 54.0546C40.0163 54.064 40.0632 54.0584 40.1194 54.0378L40.1681 54.1052L39.3173 54.7237L39.2686 54.6562C39.306 54.6075 39.3267 54.5644 39.3285 54.5288C39.3304 54.4932 39.3173 54.4538 39.2854 54.4107L37.4995 51.952C37.4676 51.9089 37.4339 51.8808 37.3983 51.8733C37.3627 51.8658 37.3158 51.8695 37.2577 51.8901L37.209 51.8227L38.9162 50.582C39.1243 50.4302 39.2985 50.3234 39.4391 50.2616C39.5797 50.1979 39.7183 50.166 39.8551 50.1641C40.0144 50.1622 40.1644 50.2035 40.3087 50.2934C40.4473 50.3796 40.5654 50.4921 40.6666 50.6308C41.0114 51.1049 40.9646 51.5603 40.5298 52.0007L41.6411 52.4186C41.836 52.4917 41.9709 52.531 42.0422 52.5404C42.1134 52.5498 42.1846 52.5329 42.2502 52.4917L42.2989 52.5592L41.3131 53.275L41.2644 53.2076C41.3244 53.1476 41.3394 53.097 41.3113 53.0576C41.2925 53.0314 41.2176 52.9939 41.0826 52.9415L39.9095 52.4879L39.1805 53.0164V53.0127ZM38.8338 52.5348L39.7539 51.8676C39.8907 51.7683 39.9826 51.6952 40.0332 51.6465C40.0838 51.5978 40.1213 51.5434 40.1494 51.4816C40.2093 51.3504 40.1831 51.208 40.0725 51.0562C39.962 50.9044 39.8364 50.8369 39.6921 50.8519C39.6228 50.8594 39.559 50.8781 39.4991 50.9081C39.4391 50.9381 39.3398 51.0056 39.2011 51.1068L38.2809 51.7739L38.8338 52.5348Z" fill="white" stroke="white" stroke-miterlimit="10"/>
<path d="M42.0652 48.6498L43.9467 50.6138C43.9842 50.6532 44.0217 50.6757 44.0573 50.6794C44.0929 50.6832 44.1379 50.6719 44.1941 50.6438L44.2522 50.7038L43.4932 51.4328L43.4351 51.3728C43.4651 51.3185 43.4801 51.2735 43.4764 51.2379C43.4726 51.2023 43.4539 51.1648 43.4164 51.1254L41.5348 49.1614L40.7777 49.8867C40.7421 49.9204 40.7234 49.956 40.7215 49.9916C40.7196 50.0272 40.7346 50.0741 40.7665 50.1322L40.7103 50.1865L40.0693 49.5156L40.1256 49.4613C40.1837 49.495 40.2286 49.5119 40.2642 49.5119C40.2998 49.5119 40.3355 49.495 40.3711 49.4594L42.4138 47.5029C42.4513 47.4673 42.47 47.4317 42.4719 47.3961C42.4737 47.3605 42.4587 47.3136 42.4269 47.2555L42.4831 47.2012L43.1259 47.8721L43.0697 47.9264C43.0135 47.8908 42.9685 47.874 42.931 47.8758C42.8935 47.8777 42.8598 47.8946 42.8223 47.9302L42.0671 48.6536L42.0652 48.6498Z" fill="white" stroke="white" stroke-miterlimit="10"/>
<path d="M78.675 21.9654V37.6704H75.525V27.4554L71.3175 37.6704H68.9325L64.7025 27.4554V37.6704H61.5525V21.9654H65.13L70.125 33.6429L75.12 21.9654H78.675ZM87.2118 37.8279C86.1168 37.8279 85.1268 37.6404 84.2418 37.2654C83.3718 36.8904 82.6818 36.3504 82.1718 35.6454C81.6618 34.9404 81.3993 34.1079 81.3843 33.1479H84.7593C84.8043 33.7929 85.0293 34.3029 85.4343 34.6779C85.8543 35.0529 86.4243 35.2404 87.1443 35.2404C87.8793 35.2404 88.4568 35.0679 88.8768 34.7229C89.2968 34.3629 89.5068 33.8979 89.5068 33.3279C89.5068 32.8629 89.3643 32.4804 89.0793 32.1804C88.7943 31.8804 88.4343 31.6479 87.9993 31.4829C87.5793 31.3029 86.9943 31.1079 86.2443 30.8979C85.2243 30.5979 84.3918 30.3054 83.7468 30.0204C83.1168 29.7204 82.5693 29.2779 82.1043 28.6929C81.6543 28.0929 81.4293 27.2979 81.4293 26.3079C81.4293 25.3779 81.6618 24.5679 82.1268 23.8779C82.5918 23.1879 83.2443 22.6629 84.0843 22.3029C84.9243 21.9279 85.8843 21.7404 86.9643 21.7404C88.5843 21.7404 89.8968 22.1379 90.9018 22.9329C91.9218 23.7129 92.4843 24.8079 92.5893 26.2179H89.1243C89.0943 25.6779 88.8618 25.2354 88.4268 24.8904C88.0068 24.5304 87.4443 24.3504 86.7393 24.3504C86.1243 24.3504 85.6293 24.5079 85.2543 24.8229C84.8943 25.1379 84.7143 25.5954 84.7143 26.1954C84.7143 26.6154 84.8493 26.9679 85.1193 27.2529C85.4043 27.5229 85.7493 27.7479 86.1543 27.9279C86.5743 28.0929 87.1593 28.2879 87.9093 28.5129C88.9293 28.8129 89.7618 29.1129 90.4068 29.4129C91.0518 29.7129 91.6068 30.1629 92.0718 30.7629C92.5368 31.3629 92.7693 32.1504 92.7693 33.1254C92.7693 33.9654 92.5518 34.7454 92.1168 35.4654C91.6818 36.1854 91.0443 36.7629 90.2043 37.1979C89.3643 37.6179 88.3668 37.8279 87.2118 37.8279ZM106.284 37.8279C105.189 37.8279 104.199 37.6404 103.314 37.2654C102.444 36.8904 101.754 36.3504 101.244 35.6454C100.734 34.9404 100.472 34.1079 100.457 33.1479H103.832C103.877 33.7929 104.102 34.3029 104.507 34.6779C104.927 35.0529 105.497 35.2404 106.217 35.2404C106.952 35.2404 107.529 35.0679 107.949 34.7229C108.369 34.3629 108.579 33.8979 108.579 33.3279C108.579 32.8629 108.437 32.4804 108.152 32.1804C107.867 31.8804 107.507 31.6479 107.072 31.4829C106.652 31.3029 106.067 31.1079 105.317 30.8979C104.297 30.5979 103.464 30.3054 102.819 30.0204C102.189 29.7204 101.642 29.2779 101.177 28.6929C100.727 28.0929 100.502 27.2979 100.502 26.3079C100.502 25.3779 100.734 24.5679 101.199 23.8779C101.664 23.1879 102.317 22.6629 103.157 22.3029C103.997 21.9279 104.957 21.7404 106.037 21.7404C107.657 21.7404 108.969 22.1379 109.974 22.9329C110.994 23.7129 111.557 24.8079 111.662 26.2179H108.197C108.167 25.6779 107.934 25.2354 107.499 24.8904C107.079 24.5304 106.517 24.3504 105.812 24.3504C105.197 24.3504 104.702 24.5079 104.327 24.8229C103.967 25.1379 103.787 25.5954 103.787 26.1954C103.787 26.6154 103.922 26.9679 104.192 27.2529C104.477 27.5229 104.822 27.7479 105.227 27.9279C105.647 28.0929 106.232 28.2879 106.982 28.5129C108.002 28.8129 108.834 29.1129 109.479 29.4129C110.124 29.7129 110.679 30.1629 111.144 30.7629C111.609 31.3629 111.842 32.1504 111.842 33.1254C111.842 33.9654 111.624 34.7454 111.189 35.4654C110.754 36.1854 110.117 36.7629 109.277 37.1979C108.437 37.6179 107.439 37.8279 106.284 37.8279ZM117.678 21.9654V31.6854C117.678 32.7504 117.955 33.5679 118.51 34.1379C119.065 34.6929 119.845 34.9704 120.85 34.9704C121.87 34.9704 122.658 34.6929 123.213 34.1379C123.768 33.5679 124.045 32.7504 124.045 31.6854V21.9654H127.218V31.6629C127.218 32.9979 126.925 34.1304 126.34 35.0604C125.77 35.9754 124.998 36.6654 124.023 37.1304C123.063 37.5954 121.99 37.8279 120.805 37.8279C119.635 37.8279 118.57 37.5954 117.61 37.1304C116.665 36.6654 115.915 35.9754 115.36 35.0604C114.805 34.1304 114.528 32.9979 114.528 31.6629V21.9654H117.678ZM141.713 26.8254C141.713 27.6654 141.511 28.4529 141.106 29.1879C140.716 29.9229 140.093 30.5154 139.238 30.9654C138.398 31.4154 137.333 31.6404 136.043 31.6404H133.411V37.6704H130.261V21.9654H136.043C137.258 21.9654 138.293 22.1754 139.148 22.5954C140.003 23.0154 140.641 23.5929 141.061 24.3279C141.496 25.0629 141.713 25.8954 141.713 26.8254ZM135.908 29.0979C136.778 29.0979 137.423 28.9029 137.843 28.5129C138.263 28.1079 138.473 27.5454 138.473 26.8254C138.473 25.2954 137.618 24.5304 135.908 24.5304H133.411V29.0979H135.908ZM155.402 26.8254C155.402 27.6654 155.2 28.4529 154.795 29.1879C154.405 29.9229 153.782 30.5154 152.927 30.9654C152.087 31.4154 151.022 31.6404 149.732 31.6404H147.1V37.6704H143.95V21.9654H149.732C150.947 21.9654 151.982 22.1754 152.837 22.5954C153.692 23.0154 154.33 23.5929 154.75 24.3279C155.185 25.0629 155.402 25.8954 155.402 26.8254ZM149.597 29.0979C150.467 29.0979 151.112 28.9029 151.532 28.5129C151.952 28.1079 152.162 27.5454 152.162 26.8254C152.162 25.2954 151.307 24.5304 149.597 24.5304H147.1V29.0979H149.597ZM164.929 37.8279C163.459 37.8279 162.109 37.4829 160.879 36.7929C159.649 36.1029 158.674 35.1504 157.954 33.9354C157.234 32.7054 156.874 31.3179 156.874 29.7729C156.874 28.2429 157.234 26.8704 157.954 25.6554C158.674 24.4254 159.649 23.4654 160.879 22.7754C162.109 22.0854 163.459 21.7404 164.929 21.7404C166.414 21.7404 167.764 22.0854 168.979 22.7754C170.209 23.4654 171.176 24.4254 171.881 25.6554C172.601 26.8704 172.961 28.2429 172.961 29.7729C172.961 31.3179 172.601 32.7054 171.881 33.9354C171.176 35.1504 170.209 36.1029 168.979 36.7929C167.749 37.4829 166.399 37.8279 164.929 37.8279ZM164.929 35.0154C165.874 35.0154 166.706 34.8054 167.426 34.3854C168.146 33.9504 168.709 33.3354 169.114 32.5404C169.519 31.7454 169.721 30.8229 169.721 29.7729C169.721 28.7229 169.519 27.8079 169.114 27.0279C168.709 26.2329 168.146 25.6254 167.426 25.2054C166.706 24.7854 165.874 24.5754 164.929 24.5754C163.984 24.5754 163.144 24.7854 162.409 25.2054C161.689 25.6254 161.126 26.2329 160.721 27.0279C160.316 27.8079 160.114 28.7229 160.114 29.7729C160.114 30.8229 160.316 31.7454 160.721 32.5404C161.126 33.3354 161.689 33.9504 162.409 34.3854C163.144 34.8054 163.984 35.0154 164.929 35.0154ZM183.405 37.6704L179.94 31.5504H178.455V37.6704H175.305V21.9654H181.2C182.415 21.9654 183.45 22.1829 184.305 22.6179C185.16 23.0379 185.797 23.6154 186.217 24.3504C186.652 25.0704 186.87 25.8804 186.87 26.7804C186.87 27.8154 186.57 28.7529 185.97 29.5929C185.37 30.4179 184.477 30.9879 183.292 31.3029L187.05 37.6704H183.405ZM178.455 29.1879H181.087C181.942 29.1879 182.58 28.9854 183 28.5804C183.42 28.1604 183.63 27.5829 183.63 26.8479C183.63 26.1279 183.42 25.5729 183 25.1829C182.58 24.7779 181.942 24.5754 181.087 24.5754H178.455V29.1879ZM200.407 21.9654V24.5079H196.222V37.6704H193.072V24.5079H188.887V21.9654H200.407Z" fill="white"/>
</svg>
